<?xml version="1.0" encoding="UTF-8" standalone="no"?>
<!DOCTYPE svg PUBLIC "-//W3C//DTD SVG 1.1//EN" "http://www.w3.org/Graphics/SVG/1.1/DTD/svg11.dtd">
<!-- Created with Vectornator (http://vectornator.io/) -->
<svg height="100%" stroke-miterlimit="10" style="fill-rule:nonzero;clip-rule:evenodd;stroke-linecap:round;stroke-linejoin:round;" version="1.1" viewBox="0 0 3370.82 2384.24" width="100%" xml:space="preserve" xmlns="http://www.w3.org/2000/svg" xmlns:vectornator="http://vectornator.io" xmlns:xlink="http://www.w3.org/1999/xlink">
<defs/>
<g id="Capa-1-copiar-copiar-copiar-copiar" vectornator:layerName="Capa 1 copiar copiar copiar copiar">
<path d="M1571.79 1285.14C1578.8 1312.05 1591.66 1338.82 1614.12 1354.15C1636.58 1369.48 1670.15 1369.49 1687.83 1348.49C1706.19 1326.69 1705.15 1287.98 1730.6 1276.11C1751.9 1266.18 1777.67 1285.9 1782.37 1309.6C1787.07 1333.31 1776.45 1357.48 1762.89 1377.18C1715.57 1445.91 1626.67 1480.76 1547.31 1461.7C1467.94 1442.65 1402.9 1370.82 1389.57 1287.53C1376.24 1204.25 1415.43 1114.51 1484.61 1069.92C1553.78 1025.33 1648.78 1028.57 1714.97 1077.79C1743.02 1098.64 1766.83 1129.09 1770.25 1164.68C1774.36 1207.43 1744.35 1250.9 1703.99 1260.68C1663.62 1270.46 1618.14 1245.29 1603.52 1205.09C1602.39 1201.96 1601.41 1198.68 1601.61 1195.35C1602.52 1180.31 1623.89 1176.9 1630.83 1163.66C1639.86 1146.42 1615.26 1127.04 1597.71 1134.38C1580.16 1141.72 1572.14 1162.68 1568.44 1181.91C1561.9 1215.98 1563.06 1251.6 1571.79 1285.14Z" fill="#591e4a" fill-rule="evenodd" opacity="1" stroke="none"/>
<path d="M1313.83 1131.14C1366.97 1194.97 1375.57 1294.22 1334.97 1367.27C1294.38 1440.31 1207.83 1482.37 1127.55 1468.85C1047.26 1455.34 978.268 1387.62 960.069 1305.46C941.87 1223.3 975.066 1131.64 1040.43 1081.47C1076.08 1054.1 1121.36 1038.62 1165.32 1044.82C1187.38 1047.94 1208.47 1056.3 1228.5 1066.37C1260.45 1082.42 1290.63 1103.29 1313.83 1131.14M1174.46 1114.35C1159.36 1109.13 1145.84 1125.49 1138.76 1140.26C1100.48 1220.15 1101.84 1319.13 1142.27 1397.87C1145.24 1403.65 1152.78 1405.64 1158.83 1403.74C1164.88 1401.85 1169.62 1396.96 1173.44 1391.74C1181.82 1380.28 1186.94 1366.64 1191.15 1352.95C1212.24 1284.4 1212.75 1209.21 1192.6 1140.36C1189.48 1129.7 1184.65 1117.88 1174.46 1114.35Z" fill="#591e4a" fill-rule="evenodd" opacity="1" stroke="none"/>
<path d="M977.266 1611.63C995.18 1644.74 1018.1 1676.62 1050.4 1694.52C1082.7 1712.42 1126.05 1713.04 1153.35 1687.73C1170.43 1671.89 1178.1 1641.17 1161.28 1625.03C1148.81 1613.07 1147.51 1592.11 1154.56 1576.08C1161.61 1560.06 1175.35 1548.25 1189.79 1538.96C1240.51 1506.3 1312.9 1501.53 1356.08 1544.28C1396.07 1583.87 1398.21 1653.37 1370.71 1703.09C1343.21 1752.82 1292.14 1784.51 1239.12 1800.84C1129.24 1834.66 1003.68 1807.38 916.171 1730.66C781.066 1612.21 747.43 1401.97 611.599 1284.41C595.155 1340.37 602.924 1403.46 632.4 1453.34C641.964 1469.53 632.069 1491.95 616.404 1501.78C600.739 1511.61 581.462 1512.25 563.151 1512.62C528.74 1513.31 494.328 1514 459.917 1514.69C439.956 1515.09 415.102 1512.27 408.038 1492.92C399.457 1469.42 425.582 1448.81 433.593 1425.09C436.758 1415.72 437.011 1405.6 437.231 1395.67C439.529 1292.03 441.828 1188.4 444.126 1084.76C444.809 1053.96 444.852 1020.84 427.888 995.548C410.775 970.032 379.716 958.328 349.865 955.402C327.41 953.2 303.808 955.362 284.181 966.88C264.553 978.397 249.813 1000.7 251.43 1024.02C252.319 1036.85 259.514 1050.41 271.589 1053.39C283.664 1056.37 297.668 1042.58 292.089 1031.09C283.166 1012.7 299.213 989.226 318.778 985.717C338.344 982.209 357.855 993.387 371.937 1007.89C418.127 1055.48 412.819 1148.23 356.898 1182.83C330.737 1199.02 298.509 1201.59 268.325 1197.28C208.925 1188.79 149.015 1147.69 138.46 1086.52C131.725 1047.48 145.969 1007.47 166.475 973.991C182.791 947.351 203.583 923.072 229.731 906.905C277.164 877.579 335.734 878.064 390.952 879.413C515.495 882.456 640.037 885.498 764.58 888.541C785.808 889.06 807.575 889.689 827.262 897.934C850.134 907.514 868.091 926.53 883.29 946.667C903.009 972.795 919.467 1002.12 927.408 1034.25C948.843 1120.99 896.546 1220.28 814.556 1248.52C898.969 1350.14 913.985 1494.67 977.266 1611.63M606.535 1163.81C621.854 1160.3 637.173 1156.8 652.491 1153.29C673.132 1148.57 694.064 1143.73 712.73 1133.46C731.396 1123.18 747.84 1106.59 753.46 1085.47C762.231 1052.52 741.972 1017.15 714.019 999.007C686.065 980.864 652.132 976.177 619.321 972.696C615.738 972.315 612.05 971.953 608.589 972.986C596.845 976.492 594.584 992.453 594.569 1005.12C594.51 1055.13 594.451 1105.15 594.392 1155.16C594.389 1157.63 594.461 1160.33 595.99 1162.23C598.391 1165.21 602.877 1164.65 606.535 1163.81Z" fill="#591e4a" fill-rule="evenodd" opacity="1" stroke="none"/>
<path d="M2500.68 1480.22C2479 1479.99 2457.36 1476.1 2436.87 1468.77C2349.15 1437.39 2289.78 1337.02 2302.6 1241.77C2315.43 1146.52 2399.04 1066.83 2491.7 1061.54C2584.36 1056.25 2675.92 1125.94 2698.76 1219.15C2721.61 1312.36 2673.24 1418.89 2589.38 1460.06C2561.79 1473.61 2531.21 1480.56 2500.68 1480.22M2503.96 1128.63C2499.02 1129.89 2495.34 1134.08 2492.22 1138.24C2472.75 1164.16 2462.9 1196.63 2458.4 1229.14C2450.31 1287.59 2458.68 1348.39 2482.22 1402.17C2485.98 1410.78 2493.14 1420.71 2501.91 1418.11C2505.03 1417.18 2507.51 1414.73 2509.66 1412.2C2524.29 1394.99 2529.14 1371.35 2533.34 1348.82C2545.96 1281.23 2556.88 1207.86 2527.22 1146.25C2522.57 1136.6 2514.07 1126.06 2503.96 1128.63Z" fill="#591e4a" fill-rule="evenodd" opacity="1" stroke="none"/>
<path d="M2895.05 1657.17C2869.41 1651.79 2838.55 1637.9 2838.32 1610.79C2838.1 1583.38 2871.17 1568.57 2897.42 1572.02C2923.66 1575.48 2948.37 1589.48 2974.82 1588.99C2989.63 1588.71 2995.06 1565.69 2985.77 1553.73C2976.48 1541.78 2960.15 1539.03 2945.36 1538.33C2881.24 1535.32 2816.32 1555.64 2764.52 1594.92C2804.87 1613.91 2833.82 1656.64 2837.36 1702.42C2840.89 1748.19 2818.86 1795.16 2781.94 1820.55C2775.82 1824.76 2769.12 1828.49 2761.82 1829.29C2743.15 1831.33 2728.12 1814.6 2716.13 1799.64C2660.58 1730.34 2597.77 1665.49 2521.68 1621.93C2445.59 1578.38 2354.6 1557.67 2270.3 1579.65C2258.27 1582.79 2245.43 1587.54 2238.92 1598.49C2232.41 1609.43 2237.37 1627.63 2249.73 1628.62C2321.07 1634.33 2392.77 1635.25 2464.22 1631.38C2486.44 1630.18 2509.97 1628.79 2529.61 1639.61C2549.25 1650.44 2561.78 1678.58 2548.82 1697.33C2540.22 1709.78 2524.25 1713.6 2509.68 1716.19C2435.44 1729.38 2359.88 1734.51 2284.62 1731.46C2240.58 1729.67 2196.09 1724.97 2154.72 1709.22C2116.75 1694.77 2078.39 1664.88 2075.98 1623.03C2074.84 1603.36 2082.09 1583.97 2092.61 1567.55C2135.45 1500.66 2222.61 1484.1 2300.05 1481.94C2423.92 1478.49 2548.33 1496.62 2666.47 1535.35C2701.07 1546.7 2736.51 1523.33 2765.82 1501.15C2774.91 1494.28 2775.76 1480.82 2775.77 1469.16C2775.9 1312.44 2776.03 1155.72 2776.17 998.997C2776.18 980.982 2775.6 961.228 2764.14 947.682C2758.58 941.118 2750.38 935.668 2749.51 926.984C2748.25 914.304 2762.89 907.115 2774.77 903.803C2813.98 892.87 2853.19 881.936 2892.4 871.003C2900.46 868.757 2908.99 866.507 2917.02 868.824C2936.58 874.463 2940.38 901.047 2940.37 922.084C2940.3 1099.24 2940.23 1276.4 2940.16 1453.56C2960.68 1452.38 2981.2 1451.19 3001.71 1450C2958.78 1411.88 2957.65 1333.97 2999.46 1294.53C3035.31 1260.71 3089.3 1257.92 3130.82 1231.99C3141.61 1225.26 3151.87 1216.46 3156.69 1204.41C3161.5 1192.36 3159.28 1176.57 3148.93 1169.14C3138.59 1161.71 3120.96 1167.84 3119.73 1180.82C3132.41 1186.12 3134.38 1205.49 3126.59 1217.13C3118.8 1228.78 3105.03 1234.23 3091.86 1238.07C3065.99 1245.61 3035.72 1248.63 3014.45 1231.59C2987.31 1209.84 2989.19 1163.6 3010.77 1135.96C3032.36 1108.32 3067.29 1095.93 3101.09 1089.82C3138.02 1083.14 3176.64 1082.45 3212.38 1094.17C3248.12 1105.89 3280.73 1131.11 3296.62 1166.3C3332.24 1245.23 3276.65 1344.69 3312.44 1423.55C3316.66 1432.86 3322.23 1443.12 3318.84 1452.8C3316.86 1458.46 3312.12 1462.58 3307.27 1465.9C3267.99 1492.81 3208.26 1478.93 3183.83 1437.21C3169.39 1412.56 3167.09 1382.54 3165.15 1353.77C3163.82 1334.1 3162.49 1314.42 3161.17 1294.74C3144.64 1311.25 3127.45 1328.88 3121.16 1351.77C3114.88 1374.65 3124.31 1403.99 3146.45 1410.31C3166.26 1415.97 3168.02 1447.48 3153.75 1462.81C3139.48 1478.15 3117.3 1481.42 3096.88 1483.83C3123.53 1513.21 3124.76 1561.48 3105.23 1596.36C3085.7 1631.23 3049.01 1653.26 3010.9 1661.39C2972.79 1669.53 2933.18 1665.19 2895.05 1657.17Z" fill="#591e4a" fill-rule="evenodd" opacity="1" stroke="none"/>
<path d="M2196.76 923.333C2201.46 964.861 2168 1002.15 2130.46 1017.46C2092.91 1032.76 2051.42 1032.26 2011.37 1037.32C2008.36 1076.19 2007.83 1115.26 2009.78 1154.2C2015.48 1139.19 2030.8 1131.21 2042.96 1121.13C2055.11 1111.06 2065.15 1092.78 2056.3 1079.52C2051.62 1072.5 2055.89 1062.17 2062.93 1057.75C2069.97 1053.33 2078.67 1053.2 2086.9 1053.19C2127.18 1053.17 2167.46 1053.15 2207.73 1053.12C2217.04 1053.12 2226.69 1053.19 2235.13 1057.26C2243.57 1061.33 2250.43 1070.61 2248.82 1080.11C2247.04 1090.61 2236.15 1096.77 2226 1098.46C2215.84 1100.15 2205.23 1098.96 2195.41 1102.14C2182.98 1106.15 2173.58 1116.52 2164.79 1126.48C2147.72 1145.83 2130.64 1165.18 2113.57 1184.53C2107.22 1191.72 2101.16 1204.03 2108.75 1209.79C2148.74 1240.07 2147.55 1304.59 2181.66 1341.81C2195.52 1356.94 2214.87 1366.54 2234.94 1368.23C2250.74 1369.56 2270.81 1368.47 2277.64 1383.29C2284.62 1398.44 2270.1 1414.56 2256.38 1423.49C2218.14 1448.37 2170.73 1462.56 2127.38 1449.51C2066.36 1431.13 2031.14 1366.88 2002.23 1308.24C1987.4 1347.03 1994.79 1394 2020.75 1425.91C2028.78 1435.77 2022.83 1452.1 2012.18 1458.78C2001.53 1465.47 1988.29 1465.27 1975.84 1464.88C1933.26 1463.51 1890.68 1462.14 1848.09 1460.78C1834.23 1460.33 1817.55 1458.04 1811.83 1444.95C1803.01 1424.72 1828.75 1408.16 1840.37 1389.51C1849.57 1374.74 1849.86 1356.04 1849.84 1338.45C1849.73 1220.85 1849.62 1103.25 1849.51 985.648C1849.5 981.063 1849.45 976.276 1847.42 972.207C1844.78 966.94 1839.37 963.922 1834.27 961.216C1749.46 916.182 1663.34 870.659 1569.99 850.776C1537.55 843.866 1502.12 840.54 1472.79 856.489C1465.63 860.382 1458.56 866.01 1456.5 874.113C1454.45 882.216 1460.19 892.5 1468.24 891.791C1489.61 889.912 1507.14 913.59 1505.86 935.775C1504.57 957.959 1489.52 976.961 1472.12 989.957C1447.12 1008.63 1415.87 1018.14 1385.1 1016.42C1367.32 1015.43 1349.54 1010.7 1334.31 1001.13C1291.53 974.254 1277.69 912.083 1295.41 863.601C1313.13 815.118 1356.16 780.239 1402.93 761.832C1490.06 727.536 1589.09 744.047 1675.31 780.755C1761.52 817.463 1838.83 873.009 1920.33 919.876C1952.62 938.448 1988.13 956.196 2024.83 951.798C2031.52 950.997 2038.65 949.137 2042.92 943.735C2051.28 933.137 2042.55 916.119 2030.33 910.902C2018.12 905.684 2004.32 907.951 1991.11 907.91C1961.66 907.818 1932.42 895.217 1911.59 873.638C1904.67 866.467 1905.96 853.817 1911.97 845.809C1917.98 837.802 1927.39 833.459 1936.6 830.012C2002.17 805.455 2078 812.218 2138.57 848.026C2166.55 864.57 2193.01 890.172 2196.76 923.333Z" fill="#591e4a" fill-rule="evenodd" opacity="1" stroke="none"/>
</g>
<g id="Capa-1-copiar-copiar-copiar-copiar_2" vectornator:layerName="Capa 1 copiar copiar copiar copiar">
<path d="M1568.35 1266.3C1575.36 1293.21 1588.22 1319.98 1610.68 1335.31C1633.15 1350.64 1666.71 1350.65 1684.39 1329.64C1702.75 1307.85 1701.71 1269.14 1727.17 1257.27C1748.46 1247.34 1774.23 1267.06 1778.93 1290.76C1783.63 1314.47 1773.01 1338.64 1759.45 1358.34C1712.13 1427.07 1623.23 1461.92 1543.87 1442.86C1464.5 1423.8 1399.46 1351.98 1386.13 1268.69C1372.8 1185.4 1411.99 1095.67 1481.17 1051.08C1550.34 1006.49 1645.34 1009.73 1711.53 1058.94C1739.58 1079.8 1763.4 1110.25 1766.81 1145.84C1770.92 1188.59 1740.92 1232.05 1700.55 1241.84C1660.18 1251.62 1614.7 1226.45 1600.08 1186.25C1598.95 1183.12 1597.97 1179.84 1598.17 1176.5C1599.08 1161.47 1620.45 1158.06 1627.39 1144.82C1636.42 1127.58 1611.82 1108.19 1594.27 1115.54C1576.72 1122.88 1568.7 1143.83 1565 1163.07C1558.46 1197.14 1559.62 1232.76 1568.35 1266.3Z" fill="#b5203d" fill-rule="evenodd" opacity="1" stroke="none"/>
<path d="M1310.39 1112.3C1363.53 1176.12 1372.13 1275.38 1331.53 1348.42C1290.94 1421.47 1204.39 1463.53 1124.11 1450.01C1043.82 1436.5 974.829 1368.78 956.63 1286.62C938.431 1204.46 971.627 1112.8 1036.99 1062.62C1072.64 1035.26 1117.92 1019.77 1161.88 1025.98C1183.94 1029.1 1205.03 1037.46 1225.06 1047.53C1257.01 1063.57 1287.19 1084.45 1310.39 1112.3M1171.02 1095.51C1155.93 1090.29 1142.4 1106.65 1135.32 1121.42C1097.05 1201.31 1098.4 1300.29 1138.84 1379.03C1141.81 1384.81 1149.34 1386.8 1155.39 1384.9C1161.44 1383 1166.18 1378.11 1170 1372.89C1178.38 1361.44 1183.5 1347.8 1187.71 1334.11C1208.8 1265.56 1209.31 1190.37 1189.16 1121.52C1186.04 1110.86 1181.21 1099.03 1171.02 1095.51Z" fill="#b5203d" fill-rule="evenodd" opacity="1" stroke="none"/>
<path d="M973.827 1592.79C991.741 1625.9 1014.66 1657.78 1046.96 1675.68C1079.26 1693.58 1122.61 1694.2 1149.91 1668.89C1166.99 1653.05 1174.66 1622.33 1157.84 1606.19C1145.37 1594.22 1144.07 1573.27 1151.12 1557.24C1158.17 1541.21 1171.91 1529.41 1186.35 1520.12C1237.07 1487.46 1309.46 1482.68 1352.64 1525.44C1392.63 1565.03 1394.77 1634.53 1367.27 1684.25C1339.77 1733.98 1288.7 1765.67 1235.68 1781.99C1125.8 1815.82 1000.24 1788.54 912.732 1711.82C777.627 1593.37 743.991 1383.13 608.16 1265.57C591.716 1321.53 599.485 1384.62 628.961 1434.5C638.525 1450.69 628.63 1473.1 612.965 1482.94C597.3 1492.77 578.023 1493.41 559.712 1493.78C525.3 1494.47 490.889 1495.16 456.477 1495.85C436.517 1496.25 411.662 1493.43 404.598 1474.08C396.017 1450.57 422.143 1429.97 430.154 1406.25C433.319 1396.87 433.571 1386.76 433.791 1376.83C436.09 1273.19 438.388 1169.55 440.687 1065.92C441.37 1035.12 441.413 1002 424.449 976.706C407.336 951.19 376.277 939.487 346.426 936.56C323.97 934.359 300.369 936.52 280.741 948.038C261.114 959.556 246.374 981.861 247.99 1005.18C248.88 1018.01 256.075 1031.57 268.15 1034.54C280.225 1037.52 294.228 1023.74 288.65 1012.24C279.727 993.862 295.774 970.384 315.339 966.876C334.905 963.367 354.416 974.546 368.498 989.053C414.688 1036.64 409.379 1129.39 353.459 1163.99C327.298 1180.17 295.07 1182.75 264.886 1178.44C205.486 1169.95 145.576 1128.85 135.021 1067.68C128.286 1028.64 142.53 988.629 163.035 955.15C179.352 928.509 200.143 904.23 226.292 888.064C273.725 858.737 332.295 859.222 387.513 860.571C512.055 863.614 636.598 866.657 761.141 869.699C782.369 870.218 804.136 870.847 823.823 879.093C846.695 888.672 864.652 907.689 879.851 927.826C899.569 953.953 916.028 983.275 923.969 1015.41C945.404 1102.15 893.107 1201.44 811.117 1229.68C895.529 1331.3 910.546 1475.83 973.827 1592.79M603.096 1144.97C618.415 1141.46 633.733 1137.96 649.052 1134.45C669.693 1129.73 690.625 1124.89 709.291 1114.61C727.957 1104.34 744.4 1087.75 750.021 1066.63C758.792 1033.68 738.533 998.308 710.58 980.165C682.626 962.023 648.693 957.335 615.882 953.854C612.299 953.474 608.611 953.112 605.15 954.145C593.405 957.65 591.145 973.611 591.13 986.277C591.071 1036.29 591.012 1086.3 590.953 1136.32C590.95 1138.79 591.021 1141.49 592.551 1143.39C594.951 1146.37 599.438 1145.8 603.096 1144.97Z" fill="#b5203d" fill-rule="evenodd" opacity="1" stroke="none"/>
<path d="M2497.24 1461.38C2475.56 1461.14 2453.92 1457.26 2433.43 1449.93C2345.71 1418.55 2286.34 1318.18 2299.16 1222.93C2311.99 1127.68 2395.61 1047.99 2488.26 1042.7C2580.92 1037.41 2672.48 1107.1 2695.33 1200.31C2718.17 1293.52 2669.8 1400.05 2585.94 1441.22C2558.35 1454.77 2527.77 1461.72 2497.24 1461.38M2500.52 1109.79C2495.58 1111.05 2491.9 1115.24 2488.78 1119.4C2469.32 1145.32 2459.47 1177.78 2454.96 1210.29C2446.87 1268.75 2455.24 1329.55 2478.78 1383.33C2482.54 1391.93 2489.7 1401.87 2498.47 1399.26C2501.6 1398.33 2504.07 1395.89 2506.22 1393.36C2520.85 1376.14 2525.7 1352.5 2529.9 1329.98C2542.52 1262.38 2553.44 1189.01 2523.78 1127.41C2519.13 1117.76 2510.63 1107.22 2500.52 1109.79Z" fill="#b5203d" fill-rule="evenodd" opacity="1" stroke="none"/>
<path d="M2891.61 1638.33C2865.97 1632.94 2835.11 1619.06 2834.88 1591.95C2834.66 1564.54 2867.73 1549.73 2893.98 1553.18C2920.22 1556.63 2944.93 1570.63 2971.38 1570.15C2986.19 1569.87 2991.62 1546.85 2982.33 1534.89C2973.04 1522.94 2956.72 1520.18 2941.92 1519.49C2877.8 1516.48 2812.88 1536.79 2761.08 1576.08C2801.43 1595.06 2830.38 1637.8 2833.92 1683.58C2837.45 1729.35 2815.43 1776.32 2778.5 1801.71C2772.38 1805.92 2765.68 1809.65 2758.38 1810.45C2739.72 1812.49 2724.68 1795.76 2712.69 1780.8C2657.14 1711.5 2594.34 1646.65 2518.24 1603.09C2442.15 1559.54 2351.16 1538.83 2266.86 1560.81C2254.83 1563.95 2241.99 1568.7 2235.48 1579.64C2228.97 1590.58 2233.93 1608.79 2246.29 1609.78C2317.63 1615.49 2389.33 1616.41 2460.78 1612.54C2483 1611.33 2506.53 1609.95 2526.17 1620.77C2545.81 1631.6 2558.34 1659.74 2545.39 1678.49C2536.78 1690.94 2520.81 1694.76 2506.24 1697.35C2432 1710.54 2356.44 1715.67 2281.18 1712.62C2237.14 1710.83 2192.65 1706.13 2151.28 1690.38C2113.31 1675.92 2074.95 1646.04 2072.54 1604.19C2071.4 1584.52 2078.65 1565.13 2089.17 1548.71C2132.01 1481.82 2219.17 1465.26 2296.61 1463.1C2420.48 1459.64 2544.89 1477.78 2663.03 1516.51C2697.64 1527.85 2733.07 1504.49 2762.38 1482.31C2771.47 1475.44 2772.32 1461.98 2772.33 1450.32C2772.46 1293.6 2772.59 1136.88 2772.73 980.155C2772.74 962.141 2772.16 942.386 2760.7 928.84C2755.14 922.276 2746.94 916.827 2746.07 908.143C2744.81 895.462 2759.45 888.273 2771.33 884.961C2810.54 874.028 2849.75 863.095 2888.96 852.161C2897.02 849.915 2905.55 847.665 2913.58 849.982C2933.14 855.621 2936.94 882.205 2936.93 903.242C2936.86 1080.4 2936.79 1257.56 2936.72 1434.72C2957.24 1433.53 2977.76 1432.35 2998.27 1431.16C2955.34 1393.04 2954.21 1315.13 2996.02 1275.69C3031.87 1241.87 3085.86 1239.07 3127.39 1213.15C3138.17 1206.42 3148.43 1197.62 3153.25 1185.57C3158.06 1173.52 3155.84 1157.73 3145.5 1150.3C3135.15 1142.87 3117.52 1149 3116.29 1161.98C3128.97 1167.28 3130.94 1186.65 3123.15 1198.29C3115.36 1209.94 3101.59 1215.39 3088.43 1219.22C3062.55 1226.77 3032.28 1229.79 3011.02 1212.75C2983.87 1191 2985.75 1144.76 3007.33 1117.12C3028.92 1089.48 3063.85 1077.09 3097.65 1070.98C3134.58 1064.29 3173.2 1063.61 3208.94 1075.33C3244.68 1087.04 3277.29 1112.27 3293.18 1147.45C3328.81 1226.39 3273.21 1325.85 3309 1404.71C3313.22 1414.02 3318.79 1424.28 3315.4 1433.96C3313.42 1439.62 3308.68 1443.74 3303.83 1447.06C3264.55 1473.97 3204.82 1460.09 3180.39 1418.37C3165.95 1393.71 3163.65 1363.7 3161.71 1334.93C3160.38 1315.25 3159.05 1295.58 3157.73 1275.9C3141.2 1292.41 3124.01 1310.04 3117.72 1332.92C3111.44 1355.81 3120.87 1385.15 3143.01 1391.47C3162.83 1397.13 3164.58 1428.64 3150.31 1443.97C3136.04 1459.31 3113.86 1462.58 3093.44 1464.99C3120.09 1494.36 3121.32 1542.64 3101.79 1577.51C3082.26 1612.39 3045.57 1634.42 3007.46 1642.55C2969.35 1650.69 2929.74 1646.35 2891.61 1638.33Z" fill="#b5203d" fill-rule="evenodd" opacity="1" stroke="none"/>
<path d="M2193.32 904.491C2198.02 946.019 2164.57 983.311 2127.02 998.614C2089.47 1013.92 2047.98 1013.42 2007.93 1018.48C2004.92 1057.35 2004.39 1096.42 2006.34 1135.36C2012.04 1120.35 2027.37 1112.37 2039.52 1102.29C2051.67 1092.21 2061.71 1073.94 2052.86 1060.67C2048.18 1053.66 2052.45 1043.32 2059.49 1038.91C2066.53 1034.49 2075.23 1034.36 2083.46 1034.35C2123.74 1034.33 2164.02 1034.31 2204.29 1034.28C2213.6 1034.28 2223.25 1034.35 2231.69 1038.42C2240.13 1042.49 2246.99 1051.77 2245.38 1061.27C2243.6 1071.77 2232.71 1077.93 2222.56 1079.62C2212.4 1081.31 2201.79 1080.12 2191.97 1083.29C2179.54 1087.31 2170.14 1097.68 2161.35 1107.64C2144.28 1126.99 2127.2 1146.34 2110.13 1165.69C2103.78 1172.88 2097.72 1185.19 2105.32 1190.94C2145.3 1221.23 2144.11 1285.75 2178.22 1322.97C2192.08 1338.1 2211.43 1347.69 2231.5 1349.39C2247.3 1350.72 2267.37 1349.63 2274.2 1364.45C2281.18 1379.6 2266.66 1395.72 2252.94 1404.65C2214.7 1429.52 2167.29 1443.71 2123.94 1430.66C2062.92 1412.29 2027.71 1348.04 1998.79 1289.39C1983.96 1328.19 1991.35 1375.16 2017.31 1407.07C2025.34 1416.93 2019.4 1433.26 2008.74 1439.94C1998.09 1446.63 1984.85 1446.43 1972.4 1446.03C1929.82 1444.67 1887.24 1443.3 1844.65 1441.94C1830.79 1441.49 1814.11 1439.2 1808.39 1426.11C1799.57 1405.88 1825.31 1389.32 1836.93 1370.67C1846.14 1355.89 1846.42 1337.2 1846.4 1319.61C1846.29 1202.01 1846.18 1084.41 1846.07 966.806C1846.07 962.221 1846.02 957.434 1843.98 953.365C1841.34 948.098 1835.93 945.08 1830.83 942.374C1746.02 897.34 1659.9 851.818 1566.55 831.935C1534.11 825.024 1498.68 821.698 1469.35 837.647C1462.19 841.54 1455.12 847.169 1453.06 855.272C1451.01 863.375 1456.75 873.658 1464.81 872.95C1486.17 871.07 1503.7 894.748 1502.42 916.933C1501.14 939.117 1486.08 958.119 1468.68 971.115C1443.68 989.792 1412.44 999.296 1381.66 997.58C1363.88 996.589 1346.1 991.856 1330.87 982.288C1288.1 955.412 1274.25 893.241 1291.97 844.759C1309.69 796.276 1352.72 761.397 1399.49 742.99C1486.62 708.694 1585.65 725.205 1671.87 761.913C1758.08 798.621 1835.39 854.167 1916.89 901.034C1949.18 919.607 1984.69 937.354 2021.39 932.957C2028.08 932.155 2035.21 930.295 2039.48 924.893C2047.84 914.296 2039.11 897.277 2026.9 892.06C2014.68 886.843 2000.88 889.109 1987.67 889.068C1958.22 888.977 1928.98 876.376 1908.16 854.797C1901.23 847.625 1902.52 834.975 1908.53 826.968C1914.54 818.96 1923.95 814.617 1933.16 811.17C1998.73 786.613 2074.57 793.376 2135.13 829.184C2163.12 845.729 2189.57 871.33 2193.32 904.491Z" fill="#b5203d" fill-rule="evenodd" opacity="1" stroke="none"/>
</g>
<g id="Capa-1-copiar-copiar-copiar" vectornator:layerName="Capa 1 copiar copiar copiar">
<path d="M1559.53 1246.79C1566.54 1273.71 1579.4 1300.48 1601.86 1315.81C1624.32 1331.14 1657.89 1331.14 1675.57 1310.14C1693.92 1288.35 1692.89 1249.63 1718.34 1237.77C1739.64 1227.84 1765.41 1247.55 1770.11 1271.26C1774.8 1294.97 1764.19 1319.14 1750.63 1338.84C1703.31 1407.56 1614.41 1442.42 1535.05 1423.36C1455.68 1404.3 1390.63 1332.48 1377.31 1249.19C1363.98 1165.9 1403.17 1076.16 1472.34 1031.57C1541.52 986.984 1636.52 990.229 1702.71 1039.44C1730.76 1060.29 1754.57 1090.74 1757.99 1126.34C1762.09 1169.09 1732.09 1212.55 1691.73 1222.33C1651.36 1232.12 1605.87 1206.95 1591.26 1166.74C1590.12 1163.62 1589.14 1160.34 1589.35 1157C1590.26 1141.96 1611.63 1138.56 1618.57 1125.31C1627.6 1108.08 1603 1088.69 1585.45 1096.04C1567.9 1103.38 1559.88 1124.33 1556.18 1143.57C1549.64 1177.63 1550.79 1213.26 1559.53 1246.79Z" fill="#e4222d" fill-rule="evenodd" opacity="1" stroke="none"/>
<path d="M1301.57 1092.8C1354.71 1156.62 1363.31 1255.87 1322.71 1328.92C1282.12 1401.97 1195.57 1444.02 1115.28 1430.51C1034.99 1416.99 966.006 1349.27 947.807 1267.11C929.608 1184.95 962.805 1093.29 1028.17 1043.12C1063.82 1015.76 1109.1 1000.27 1153.06 1006.48C1175.12 1009.6 1196.21 1017.96 1216.24 1028.02C1248.19 1044.07 1278.37 1064.94 1301.57 1092.8M1162.2 1076.01C1147.1 1070.79 1133.58 1087.15 1126.5 1101.92C1088.22 1181.81 1089.57 1280.79 1130.01 1359.53C1132.98 1365.31 1140.52 1367.29 1146.57 1365.4C1152.62 1363.5 1157.36 1358.61 1161.18 1353.39C1169.56 1341.94 1174.68 1328.3 1178.89 1314.6C1199.97 1246.05 1200.49 1170.87 1180.34 1102.02C1177.22 1091.36 1172.39 1079.53 1162.2 1076.01Z" fill="#e4222d" fill-rule="evenodd" opacity="1" stroke="none"/>
<path d="M965.004 1573.28C982.919 1606.39 1005.84 1638.27 1038.14 1656.18C1070.44 1674.08 1113.79 1674.69 1141.09 1649.38C1158.17 1633.54 1165.84 1602.82 1149.02 1586.69C1136.54 1574.72 1135.25 1553.76 1142.3 1537.74C1149.35 1521.71 1163.09 1509.91 1177.52 1500.61C1228.25 1467.96 1300.64 1463.18 1343.82 1505.93C1383.8 1545.53 1385.95 1615.02 1358.45 1664.75C1330.95 1714.48 1279.87 1746.17 1226.86 1762.49C1116.98 1796.32 991.419 1769.03 903.91 1692.31C768.804 1573.86 735.168 1363.63 599.337 1246.07C582.893 1302.03 590.662 1365.12 620.138 1415C629.703 1431.19 619.807 1453.6 604.142 1463.43C588.478 1473.27 569.2 1473.91 550.889 1474.28C516.478 1474.97 482.066 1475.66 447.655 1476.35C427.695 1476.75 402.84 1473.93 395.776 1454.58C387.195 1431.07 413.321 1410.47 421.332 1386.74C424.496 1377.37 424.749 1367.25 424.969 1357.33C427.267 1253.69 429.566 1150.05 431.864 1046.42C432.547 1015.62 432.59 982.497 415.627 957.204C398.513 931.689 367.454 919.985 337.603 917.058C315.148 914.857 291.546 917.018 271.919 928.536C252.292 940.054 237.552 962.359 239.168 985.674C240.057 998.504 247.253 1012.06 259.327 1015.04C271.402 1018.02 285.406 1004.23 279.828 992.743C270.904 974.36 286.951 950.882 306.517 947.374C326.082 943.865 345.593 955.044 359.675 969.551C405.865 1017.13 400.557 1109.89 344.636 1144.49C318.475 1160.67 286.247 1163.25 256.064 1158.94C196.663 1150.45 136.753 1109.34 126.199 1048.17C119.463 1009.14 133.707 969.127 154.213 935.648C170.53 909.007 191.321 884.728 217.469 868.562C264.902 839.236 323.472 839.72 378.69 841.069C503.233 844.112 627.775 847.155 752.318 850.197C773.546 850.716 795.314 851.345 815 859.591C837.872 869.17 855.83 888.187 871.028 908.324C890.747 934.451 907.205 963.773 915.146 995.906C936.581 1082.64 884.285 1181.94 802.294 1210.17C886.707 1311.8 901.723 1456.33 965.004 1573.28M594.273 1125.46C609.592 1121.96 624.911 1118.45 640.229 1114.95C660.87 1110.22 681.802 1105.39 700.468 1095.11C719.135 1084.83 735.578 1068.24 741.199 1047.13C749.969 1014.18 729.711 978.806 701.757 960.663C673.804 942.521 639.87 937.833 607.059 934.352C603.476 933.972 599.788 933.61 596.327 934.643C584.583 938.148 582.323 954.109 582.308 966.775C582.248 1016.79 582.189 1066.8 582.13 1116.82C582.127 1119.29 582.199 1121.99 583.729 1123.89C586.129 1126.87 590.615 1126.3 594.273 1125.46Z" fill="#e4222d" fill-rule="evenodd" opacity="1" stroke="none"/>
<path d="M2488.42 1441.88C2466.74 1441.64 2445.1 1437.76 2424.6 1430.43C2336.88 1399.05 2277.52 1298.68 2290.34 1203.43C2303.17 1108.18 2386.78 1028.49 2479.44 1023.19C2572.1 1017.9 2663.66 1087.6 2686.5 1180.81C2709.35 1274.02 2660.98 1380.54 2577.12 1421.72C2549.53 1435.27 2518.95 1442.22 2488.42 1441.88M2491.7 1090.29C2486.76 1091.55 2483.08 1095.74 2479.95 1099.9C2460.49 1125.82 2450.64 1158.28 2446.14 1190.79C2438.05 1249.25 2446.41 1310.05 2469.95 1363.83C2473.72 1372.43 2480.88 1382.37 2489.65 1379.76C2492.77 1378.83 2495.25 1376.39 2497.4 1373.86C2512.03 1356.64 2516.87 1333 2521.08 1310.48C2533.7 1242.88 2544.61 1169.51 2514.95 1107.9C2510.31 1098.25 2501.81 1087.72 2491.7 1090.29Z" fill="#e4222d" fill-rule="evenodd" opacity="1" stroke="none"/>
<path d="M2882.79 1618.83C2857.15 1613.44 2826.28 1599.56 2826.06 1572.45C2825.83 1545.03 2858.91 1530.23 2885.16 1533.68C2911.4 1537.13 2936.1 1551.13 2962.56 1550.64C2977.36 1550.37 2982.79 1527.35 2973.51 1515.39C2964.22 1503.44 2947.89 1500.68 2933.1 1499.99C2868.98 1496.98 2804.06 1517.29 2752.26 1556.57C2792.6 1575.56 2821.56 1618.3 2825.1 1664.07C2828.63 1709.85 2806.6 1756.81 2769.68 1782.21C2763.56 1786.42 2756.86 1790.14 2749.56 1790.94C2730.89 1792.99 2715.86 1776.25 2703.86 1761.29C2648.32 1692 2585.51 1627.15 2509.42 1583.59C2433.33 1540.04 2342.34 1519.33 2258.03 1541.31C2246 1544.45 2233.17 1549.2 2226.66 1560.14C2220.15 1571.08 2225.1 1589.28 2237.47 1590.27C2308.81 1595.99 2380.5 1596.91 2451.96 1593.04C2474.17 1591.83 2497.7 1590.44 2517.35 1601.27C2536.99 1612.1 2549.51 1640.24 2536.56 1658.98C2527.96 1671.44 2511.99 1675.26 2497.41 1677.85C2423.18 1691.04 2347.62 1696.17 2272.36 1693.12C2228.32 1691.33 2183.83 1686.62 2142.46 1670.88C2104.49 1656.42 2066.13 1626.54 2063.71 1584.69C2062.58 1565.01 2069.83 1545.63 2080.34 1529.2C2123.19 1462.32 2210.35 1445.76 2287.79 1443.6C2411.66 1440.14 2536.07 1458.28 2654.21 1497.01C2688.81 1508.35 2724.25 1484.99 2753.56 1462.81C2762.64 1455.94 2763.49 1442.47 2763.5 1430.82C2763.64 1274.1 2763.77 1117.38 2763.9 960.653C2763.92 942.639 2763.34 922.884 2751.88 909.339C2746.32 902.774 2738.11 897.325 2737.25 888.641C2735.99 875.961 2750.63 868.771 2762.51 865.459C2801.72 854.526 2840.93 843.593 2880.14 832.66C2888.2 830.413 2896.73 828.163 2904.76 830.48C2924.32 836.119 2928.12 862.703 2928.11 883.74C2928.04 1060.9 2927.97 1238.06 2927.9 1415.22C2948.42 1414.03 2968.93 1412.85 2989.45 1411.66C2946.52 1373.54 2945.39 1295.63 2987.2 1256.19C3023.05 1222.37 3077.04 1219.57 3118.56 1193.65C3129.34 1186.92 3139.61 1178.12 3144.43 1166.07C3149.24 1154.02 3147.02 1138.22 3136.67 1130.79C3126.33 1123.36 3108.7 1129.49 3107.47 1142.47C3120.14 1147.78 3122.12 1167.15 3114.33 1178.79C3106.54 1190.44 3092.76 1195.89 3079.6 1199.72C3053.73 1207.26 3023.46 1210.28 3002.19 1193.25C2975.05 1171.5 2976.92 1125.26 2998.51 1097.62C3020.1 1069.97 3055.03 1057.59 3088.83 1051.47C3125.75 1044.79 3164.38 1044.11 3200.12 1055.82C3235.86 1067.54 3268.47 1092.77 3284.35 1127.95C3319.98 1206.88 3264.39 1306.35 3300.17 1385.21C3304.4 1394.52 3309.97 1404.78 3306.58 1414.45C3304.6 1420.12 3299.86 1424.23 3295.01 1427.56C3255.73 1454.47 3196 1440.59 3171.57 1398.87C3157.13 1374.21 3154.83 1344.2 3152.89 1315.43C3151.56 1295.75 3150.23 1276.08 3148.9 1256.4C3132.38 1272.91 3115.18 1290.54 3108.9 1313.42C3102.62 1336.31 3112.05 1365.65 3134.18 1371.97C3154 1377.63 3155.76 1409.14 3141.49 1424.47C3127.22 1439.8 3105.04 1443.08 3084.62 1445.48C3111.27 1474.86 3112.5 1523.14 3092.97 1558.01C3073.44 1592.89 3036.75 1614.91 2998.64 1623.05C2960.53 1631.18 2920.92 1626.84 2882.79 1618.83Z" fill="#e4222d" fill-rule="evenodd" opacity="1" stroke="none"/>
<path d="M2184.5 884.989C2189.2 926.517 2155.74 963.809 2118.2 979.113C2080.65 994.416 2039.16 993.921 1999.11 998.979C1996.1 1037.85 1995.57 1076.92 1997.51 1115.86C2003.22 1100.85 2018.54 1092.86 2030.7 1082.79C2042.85 1072.71 2052.89 1054.44 2044.04 1041.17C2039.36 1034.16 2043.63 1023.82 2050.67 1019.41C2057.71 1014.99 2066.41 1014.86 2074.64 1014.85C2114.91 1014.83 2155.19 1014.8 2195.47 1014.78C2204.78 1014.77 2214.43 1014.84 2222.87 1018.91C2231.3 1022.98 2238.17 1032.27 2236.56 1041.77C2234.78 1052.27 2223.89 1058.43 2213.73 1060.12C2203.58 1061.81 2192.97 1060.62 2183.15 1063.79C2170.72 1067.81 2161.32 1078.18 2152.53 1088.14C2135.46 1107.49 2118.38 1126.84 2101.31 1146.19C2094.96 1153.38 2088.9 1165.69 2096.49 1171.44C2136.48 1201.72 2135.29 1266.25 2169.39 1303.47C2183.26 1318.6 2202.61 1328.19 2222.68 1329.88C2238.48 1331.21 2258.55 1330.12 2265.38 1344.95C2272.35 1360.1 2257.83 1376.22 2244.11 1385.15C2205.88 1410.02 2158.47 1424.21 2115.12 1411.16C2054.1 1392.79 2018.88 1328.53 1989.97 1269.89C1975.14 1308.69 1982.53 1355.66 2008.49 1387.56C2016.52 1397.43 2010.57 1413.75 1999.92 1420.44C1989.27 1427.13 1976.03 1426.93 1963.58 1426.53C1921 1425.17 1878.41 1423.8 1835.83 1422.43C1821.97 1421.99 1805.28 1419.7 1799.57 1406.61C1790.75 1386.38 1816.48 1369.81 1828.1 1351.17C1837.31 1336.39 1837.6 1317.69 1837.58 1300.1C1837.47 1182.5 1837.36 1064.9 1837.25 947.304C1837.24 942.719 1837.19 937.932 1835.15 933.863C1832.52 928.596 1827.11 925.578 1822.01 922.872C1737.2 877.838 1651.07 832.316 1557.73 812.433C1525.29 805.522 1489.85 802.196 1460.53 818.145C1453.37 822.038 1446.3 827.667 1444.24 835.77C1442.18 843.873 1447.93 854.156 1455.98 853.448C1477.35 851.568 1494.87 875.246 1493.59 897.431C1492.31 919.615 1477.26 938.617 1459.86 951.614C1434.86 970.29 1403.61 979.794 1372.84 978.078C1355.06 977.087 1337.28 972.354 1322.05 962.786C1279.27 935.91 1265.43 873.739 1283.15 825.257C1300.87 776.774 1343.9 741.895 1390.67 723.488C1477.8 689.192 1576.83 705.703 1663.04 742.411C1749.26 779.119 1826.56 834.665 1908.06 881.532C1940.36 900.105 1975.87 917.852 2012.56 913.455C2019.25 912.653 2026.39 910.793 2030.65 905.391C2039.02 894.794 2030.29 877.775 2018.07 872.558C2005.86 867.341 1992.06 869.607 1978.85 869.566C1949.4 869.475 1920.16 856.874 1899.33 835.295C1892.41 828.123 1893.7 815.473 1899.71 807.466C1905.72 799.458 1915.13 795.116 1924.33 791.668C1989.91 767.111 2065.74 773.874 2126.31 809.682C2154.29 826.227 2180.74 851.828 2184.5 884.989Z" fill="#e4222d" fill-rule="evenodd" opacity="1" stroke="none"/>
</g>
<g id="Capa-1-copiar-copiar-copiar-copiar_3" vectornator:layerName="Capa 1 copiar copiar copiar copiar">
<path d="M1552.1 1231.64C1559.11 1258.55 1571.97 1285.32 1594.43 1300.65C1616.9 1315.99 1650.46 1315.99 1668.15 1294.99C1686.5 1273.19 1685.46 1234.48 1710.92 1222.61C1732.21 1212.68 1757.98 1232.4 1762.68 1256.11C1767.38 1279.81 1756.77 1303.99 1743.2 1323.69C1695.88 1392.41 1606.98 1427.26 1527.62 1408.21C1448.26 1389.15 1383.21 1317.33 1369.88 1234.04C1356.55 1150.75 1395.74 1061.01 1464.92 1016.42C1534.09 971.83 1629.09 975.075 1695.29 1024.29C1723.33 1045.14 1747.15 1075.59 1750.56 1111.19C1754.67 1153.94 1724.67 1197.4 1684.3 1207.18C1643.94 1216.96 1598.45 1191.79 1583.83 1151.59C1582.7 1148.47 1581.72 1145.18 1581.92 1141.85C1582.84 1126.81 1604.21 1123.4 1611.14 1110.16C1620.17 1092.92 1595.57 1073.54 1578.02 1080.88C1560.47 1088.23 1552.45 1109.18 1548.76 1128.41C1542.21 1162.48 1543.37 1198.11 1552.1 1231.64Z" fill="#f6612b" fill-rule="evenodd" opacity="1" stroke="none"/>
<path d="M1294.14 1077.65C1347.28 1141.47 1355.88 1240.72 1315.29 1313.77C1274.69 1386.82 1188.15 1428.87 1107.86 1415.36C1027.57 1401.84 958.581 1334.12 940.381 1251.96C922.182 1169.8 955.379 1078.14 1020.74 1027.97C1056.39 1000.6 1101.67 985.119 1145.63 991.327C1167.69 994.444 1188.78 1002.8 1208.82 1012.87C1240.76 1028.92 1270.95 1049.79 1294.14 1077.65M1154.77 1060.85C1139.68 1055.63 1126.15 1071.99 1119.07 1086.77C1080.8 1166.65 1082.15 1265.64 1122.59 1344.37C1125.56 1350.15 1133.09 1352.14 1139.14 1350.24C1145.19 1348.35 1149.93 1343.46 1153.75 1338.24C1162.13 1326.78 1167.25 1313.15 1171.46 1299.45C1192.55 1230.9 1193.06 1155.72 1172.91 1086.86C1169.79 1076.21 1164.97 1064.38 1154.77 1060.85Z" fill="#f6612b" fill-rule="evenodd" opacity="1" stroke="none"/>
<path d="M957.578 1558.13C975.493 1591.24 998.413 1623.12 1030.71 1641.02C1063.01 1658.93 1106.36 1659.54 1133.66 1634.23C1150.74 1618.39 1158.41 1587.67 1141.59 1571.53C1129.12 1559.57 1127.82 1538.61 1134.87 1522.58C1141.92 1506.56 1155.66 1494.75 1170.1 1485.46C1220.82 1452.8 1293.21 1448.03 1336.39 1490.78C1376.38 1530.37 1378.52 1599.87 1351.02 1649.6C1323.52 1699.32 1272.45 1731.02 1219.43 1747.34C1109.56 1781.17 983.993 1753.88 896.484 1677.16C761.378 1558.71 727.742 1348.47 591.911 1230.92C575.467 1286.87 583.236 1349.97 612.712 1399.85C622.277 1416.03 612.381 1438.45 596.716 1448.28C581.052 1458.11 561.774 1458.76 543.463 1459.12C509.052 1459.81 474.64 1460.5 440.229 1461.19C420.269 1461.59 395.414 1458.78 388.35 1439.43C379.769 1415.92 405.895 1395.31 413.906 1371.59C417.07 1362.22 417.323 1352.1 417.543 1342.17C419.841 1238.54 422.14 1134.9 424.438 1031.26C425.121 1000.47 425.164 967.343 408.201 942.051C391.087 916.535 360.029 904.831 330.177 901.905C307.722 899.703 284.12 901.865 264.493 913.382C244.866 924.9 230.126 947.206 231.742 970.521C232.631 983.351 239.827 996.911 251.901 999.889C263.976 1002.87 277.98 989.08 272.402 977.589C263.478 959.206 279.525 935.728 299.091 932.22C318.656 928.712 338.167 939.89 352.249 954.397C398.439 1001.98 393.131 1094.73 337.211 1129.33C311.049 1145.52 278.821 1148.1 248.638 1143.78C189.237 1135.29 129.327 1094.19 118.773 1033.02C112.037 993.985 126.281 953.973 146.787 920.494C163.104 893.853 183.895 869.574 210.043 853.408C257.476 824.082 316.046 824.567 371.264 825.916C495.807 828.958 620.35 832.001 744.892 835.044C766.12 835.562 787.888 836.192 807.575 844.437C830.446 854.017 848.404 873.033 863.602 893.17C883.321 919.297 899.779 948.619 907.72 980.752C929.155 1067.49 876.859 1166.79 794.868 1195.02C879.281 1296.64 894.297 1441.18 957.578 1558.13M586.847 1110.31C602.166 1106.81 617.485 1103.3 632.804 1099.79C653.444 1095.07 674.376 1090.24 693.042 1079.96C711.709 1069.68 728.152 1053.09 733.773 1031.97C742.543 999.022 722.285 963.652 694.331 945.51C666.378 927.367 632.445 922.68 599.633 919.198C596.05 918.818 592.362 918.456 588.901 919.489C577.157 922.994 574.897 938.956 574.882 951.622C574.823 1001.64 574.763 1051.65 574.704 1101.66C574.701 1104.14 574.773 1106.84 576.303 1108.74C578.703 1111.72 583.189 1111.15 586.847 1110.31Z" fill="#f6612b" fill-rule="evenodd" opacity="1" stroke="none"/>
<path d="M2480.99 1426.73C2459.31 1426.49 2437.67 1422.6 2417.18 1415.27C2329.46 1383.9 2270.09 1283.52 2282.92 1188.27C2295.74 1093.03 2379.36 1013.33 2472.02 1008.04C2564.67 1002.75 2656.23 1072.44 2679.08 1165.65C2701.92 1258.86 2653.56 1365.39 2569.69 1406.57C2542.1 1420.11 2511.52 1427.06 2480.99 1426.73M2484.28 1075.14C2479.34 1076.4 2475.65 1080.58 2472.53 1084.74C2453.07 1110.66 2443.22 1143.13 2438.72 1175.64C2430.62 1234.09 2438.99 1294.89 2462.53 1348.67C2466.29 1357.28 2473.45 1367.22 2482.22 1364.61C2485.35 1363.68 2487.83 1361.23 2489.98 1358.7C2504.6 1341.49 2509.45 1317.85 2513.65 1295.33C2526.27 1227.73 2537.19 1154.36 2507.53 1092.75C2502.88 1083.1 2494.38 1072.56 2484.28 1075.14Z" fill="#f6612b" fill-rule="evenodd" opacity="1" stroke="none"/>
<path d="M2875.36 1603.68C2849.72 1598.29 2818.86 1584.4 2818.63 1557.3C2818.41 1529.88 2851.48 1515.08 2877.73 1518.53C2903.98 1521.98 2928.68 1535.98 2955.13 1535.49C2969.94 1535.22 2975.37 1512.19 2966.08 1500.24C2956.79 1488.28 2940.47 1485.53 2925.67 1484.83C2861.55 1481.82 2796.63 1502.14 2744.83 1541.42C2785.18 1560.41 2814.13 1603.14 2817.67 1648.92C2821.21 1694.7 2799.18 1741.66 2762.26 1767.06C2756.14 1771.27 2749.43 1774.99 2742.13 1775.79C2723.47 1777.83 2708.43 1761.1 2696.44 1746.14C2640.89 1676.84 2578.09 1611.99 2501.99 1568.44C2425.9 1524.88 2334.91 1504.18 2250.61 1526.16C2238.58 1529.29 2225.75 1534.05 2219.23 1544.99C2212.72 1555.93 2217.68 1574.13 2230.05 1575.12C2301.38 1580.83 2373.08 1581.75 2444.53 1577.88C2466.75 1576.68 2490.28 1575.29 2509.92 1586.12C2529.56 1596.94 2542.09 1625.08 2529.14 1643.83C2520.53 1656.29 2504.56 1660.1 2489.99 1662.69C2415.76 1675.89 2340.19 1681.01 2264.93 1677.96C2220.89 1676.18 2176.4 1671.47 2135.03 1655.72C2097.06 1641.27 2058.7 1611.38 2056.29 1569.54C2055.15 1549.86 2062.4 1530.47 2072.92 1514.05C2115.76 1447.16 2202.92 1430.6 2280.36 1428.44C2404.23 1424.99 2528.64 1443.12 2646.78 1481.85C2681.39 1493.2 2716.82 1469.83 2746.14 1447.66C2755.22 1440.79 2756.07 1427.32 2756.08 1415.67C2756.21 1258.94 2756.34 1102.22 2756.48 945.5C2756.49 927.485 2755.91 907.731 2744.45 894.185C2738.9 887.621 2730.69 882.171 2729.82 873.487C2728.56 860.807 2743.2 853.618 2755.08 850.305C2794.29 839.372 2833.5 828.439 2872.71 817.506C2880.77 815.26 2889.3 813.009 2897.34 815.327C2916.89 820.965 2920.69 847.549 2920.68 868.586C2920.61 1045.75 2920.54 1222.91 2920.47 1400.07C2940.99 1398.88 2961.51 1397.69 2982.03 1396.51C2939.09 1358.38 2937.96 1280.48 2979.77 1241.03C3015.62 1207.22 3069.61 1204.42 3111.14 1178.5C3121.92 1171.77 3132.19 1162.97 3137 1150.92C3141.82 1138.87 3139.59 1123.07 3129.25 1115.64C3118.9 1108.21 3101.27 1114.34 3100.04 1127.32C3112.72 1132.62 3114.69 1151.99 3106.9 1163.64C3099.11 1175.28 3085.34 1180.73 3072.18 1184.57C3046.3 1192.11 3016.03 1195.13 2994.77 1178.09C2967.62 1156.34 2969.5 1110.1 2991.09 1082.46C3012.67 1054.82 3047.6 1042.44 3081.4 1036.32C3118.33 1029.64 3156.95 1028.95 3192.69 1040.67C3228.43 1052.39 3261.05 1077.61 3276.93 1112.8C3312.56 1191.73 3256.96 1291.2 3292.75 1370.05C3296.97 1379.37 3302.54 1389.63 3299.15 1399.3C3297.17 1404.96 3292.43 1409.08 3287.58 1412.4C3248.3 1439.32 3188.57 1425.44 3164.14 1383.72C3149.71 1359.06 3147.4 1329.05 3145.46 1300.28C3144.13 1280.6 3142.81 1260.92 3141.48 1241.24C3124.95 1257.76 3107.76 1275.38 3101.48 1298.27C3095.19 1321.15 3104.62 1350.5 3126.76 1356.81C3146.58 1362.47 3148.33 1393.98 3134.06 1409.32C3119.79 1424.65 3097.62 1427.92 3077.19 1430.33C3103.84 1459.71 3105.07 1507.98 3085.54 1542.86C3066.01 1577.73 3029.32 1599.76 2991.21 1607.9C2953.1 1616.03 2913.49 1611.69 2875.36 1603.68Z" fill="#f6612b" fill-rule="evenodd" opacity="1" stroke="none"/>
<path d="M2177.07 869.836C2181.77 911.364 2148.32 948.655 2110.77 963.959C2073.22 979.262 2031.73 978.767 1991.68 983.826C1988.67 1022.69 1988.14 1061.76 1990.09 1100.7C1995.79 1085.7 2011.12 1077.71 2023.27 1067.64C2035.42 1057.56 2045.46 1039.29 2036.61 1026.02C2031.93 1019 2036.2 1008.67 2043.24 1004.25C2050.28 999.835 2058.98 999.702 2067.21 999.697C2107.49 999.673 2147.77 999.65 2188.05 999.626C2197.35 999.62 2207 999.69 2215.44 1003.76C2223.88 1007.83 2230.74 1017.12 2229.13 1026.61C2227.35 1037.11 2216.46 1043.28 2206.31 1044.97C2196.15 1046.65 2185.54 1045.47 2175.72 1048.64C2163.29 1052.65 2153.9 1063.02 2145.11 1072.98C2128.03 1092.33 2110.96 1111.68 2093.88 1131.03C2087.53 1138.23 2081.47 1150.53 2089.07 1156.29C2129.06 1186.57 2127.86 1251.09 2161.97 1288.31C2175.83 1303.44 2195.19 1313.04 2215.25 1314.73C2231.05 1316.06 2251.12 1314.97 2257.95 1329.8C2264.93 1344.95 2250.41 1361.07 2236.69 1369.99C2198.46 1394.87 2151.04 1409.06 2107.69 1396.01C2046.67 1377.64 2011.46 1313.38 1982.55 1254.74C1967.71 1293.54 1975.1 1340.51 2001.07 1372.41C2009.09 1382.28 2003.15 1398.6 1992.5 1405.29C1981.84 1411.97 1968.6 1411.78 1956.16 1411.38C1913.57 1410.01 1870.99 1408.65 1828.4 1407.28C1814.54 1406.84 1797.86 1404.55 1792.15 1391.45C1783.32 1371.23 1809.06 1354.66 1820.68 1336.02C1829.89 1321.24 1830.17 1302.54 1830.15 1284.95C1830.04 1167.35 1829.93 1049.75 1829.82 932.15C1829.82 927.566 1829.77 922.779 1827.73 918.71C1825.09 913.443 1819.68 910.424 1814.59 907.718C1729.77 862.684 1643.65 817.162 1550.3 797.279C1517.86 790.369 1482.43 787.043 1453.1 802.991C1445.94 806.885 1438.87 812.513 1436.82 820.616C1434.76 828.719 1440.5 839.003 1448.56 838.294C1469.92 836.415 1487.45 860.093 1486.17 882.277C1484.89 904.462 1469.83 923.464 1452.44 936.46C1427.44 955.137 1396.19 964.64 1365.41 962.924C1347.63 961.933 1329.85 957.2 1314.63 947.633C1271.85 920.756 1258 858.586 1275.72 810.103C1293.44 761.621 1336.47 726.742 1383.24 708.335C1470.37 674.039 1569.4 690.549 1655.62 727.258C1741.83 763.966 1819.14 819.512 1900.64 866.379C1932.94 884.951 1968.45 902.698 2005.14 898.301C2011.83 897.499 2018.96 895.639 2023.23 890.237C2031.6 879.64 2022.86 862.622 2010.65 857.405C1998.43 852.187 1984.64 854.453 1971.42 854.412C1941.97 854.321 1912.73 841.72 1891.91 820.141C1884.99 812.97 1886.28 800.32 1892.28 792.312C1898.29 784.305 1907.7 779.962 1916.91 776.515C1982.49 751.958 2058.32 758.721 2118.88 794.528C2146.87 811.073 2173.32 836.675 2177.07 869.836Z" fill="#f6612b" fill-rule="evenodd" opacity="1" stroke="none"/>
</g>
<g id="Capa-1-copiar-copiar-copiar-copiar_4" vectornator:layerName="Capa 1 copiar copiar copiar copiar">
<path d="M1537.09 1217.46C1544.1 1244.37 1556.96 1271.14 1579.43 1286.48C1601.89 1301.81 1635.45 1301.81 1653.14 1280.81C1671.49 1259.01 1670.45 1220.3 1695.91 1208.43C1717.21 1198.5 1742.98 1218.22 1747.67 1241.93C1752.37 1265.63 1741.76 1289.81 1728.19 1309.51C1680.88 1378.23 1591.98 1413.09 1512.61 1394.03C1433.25 1374.97 1368.2 1303.15 1354.87 1219.86C1341.54 1136.57 1380.73 1046.82 1449.91 1002.23C1519.09 957.643 1614.08 960.888 1680.28 1010.1C1708.32 1030.95 1732.14 1061.41 1735.56 1097C1739.66 1139.75 1709.66 1183.22 1669.29 1193C1628.93 1202.78 1583.44 1177.61 1568.83 1137.41C1567.69 1134.28 1566.71 1131 1566.91 1127.67C1567.83 1112.63 1589.2 1109.22 1596.14 1095.98C1605.17 1078.74 1580.56 1059.35 1563.01 1066.7C1545.46 1074.04 1537.44 1094.99 1533.75 1114.23C1527.21 1148.3 1528.36 1183.92 1537.09 1217.46Z" fill="#e1d9cd" fill-rule="evenodd" opacity="1" stroke="none"/>
<path d="M1279.13 1063.46C1332.27 1127.29 1340.87 1226.54 1300.28 1299.59C1259.68 1372.64 1173.14 1414.69 1092.85 1401.18C1012.56 1387.66 943.573 1319.94 925.374 1237.78C907.175 1155.62 940.372 1063.96 1005.74 1013.78C1041.39 986.418 1086.67 970.932 1130.62 977.141C1152.69 980.257 1173.77 988.617 1193.81 998.683C1225.76 1014.73 1255.94 1035.61 1279.13 1063.46M1139.77 1046.67C1124.67 1041.45 1111.14 1057.81 1104.07 1072.58C1065.79 1152.47 1067.14 1251.46 1107.58 1330.19C1110.55 1335.98 1118.08 1337.96 1124.13 1336.07C1130.18 1334.17 1134.92 1329.28 1138.74 1324.06C1147.12 1312.61 1152.24 1298.97 1156.46 1285.27C1177.54 1216.72 1178.05 1141.53 1157.91 1072.68C1154.79 1062.02 1149.96 1050.19 1139.77 1046.67Z" fill="#e1d9cd" fill-rule="evenodd" opacity="1" stroke="none"/>
<path d="M942.571 1543.96C960.486 1577.07 983.406 1608.95 1015.7 1626.85C1048 1644.76 1091.35 1645.37 1118.65 1620.06C1135.73 1604.22 1143.4 1573.5 1126.58 1557.36C1114.11 1545.4 1112.82 1524.44 1119.87 1508.41C1126.91 1492.38 1140.65 1480.58 1155.09 1471.28C1205.82 1438.63 1278.21 1433.85 1321.38 1476.61C1361.37 1516.2 1363.51 1585.7 1336.02 1635.43C1308.52 1685.15 1257.44 1716.85 1204.43 1733.17C1094.55 1767 968.986 1739.71 881.477 1662.99C746.371 1544.54 712.735 1334.29 576.904 1216.74C560.46 1272.69 568.229 1335.79 597.705 1385.67C607.27 1401.86 597.374 1424.27 581.709 1434.11C566.045 1443.94 546.767 1444.58 528.456 1444.95C494.045 1445.64 459.633 1446.33 425.222 1447.02C405.262 1447.42 380.407 1444.6 373.343 1425.25C364.762 1401.74 390.888 1381.13 398.899 1357.41C402.063 1348.04 402.316 1337.92 402.536 1328C404.834 1224.36 407.133 1120.72 409.431 1017.08C410.114 986.281 410.157 953.156 393.194 927.863C376.08 902.346 345.021 890.642 315.17 887.716C292.715 885.514 269.113 887.676 249.486 899.194C229.859 910.712 215.119 933.018 216.735 956.333C217.624 969.164 224.82 982.724 236.894 985.703C248.969 988.681 262.973 974.893 257.395 963.402C248.471 945.019 264.518 921.54 284.084 918.032C303.649 914.524 323.16 925.702 337.242 940.21C383.432 987.793 378.124 1080.55 322.204 1115.15C296.042 1131.34 263.814 1133.91 233.631 1129.6C174.23 1121.11 114.32 1080.01 103.766 1018.83C97.0304 979.798 111.274 939.786 131.78 906.306C148.097 879.664 168.888 855.385 195.036 839.218C242.469 809.891 301.039 810.376 356.257 811.725C480.8 814.768 605.342 817.81 729.885 820.853C751.113 821.372 772.881 822.001 792.567 830.247C815.439 839.827 833.397 858.843 848.595 878.981C868.314 905.109 884.772 934.432 892.713 966.565C914.148 1053.31 861.852 1152.6 779.861 1180.84C864.274 1282.46 879.29 1427 942.571 1543.96M571.84 1096.13C587.159 1092.62 602.478 1089.12 617.796 1085.61C638.437 1080.89 659.369 1076.05 678.035 1065.77C696.702 1055.5 713.145 1038.9 718.766 1017.79C727.536 984.836 707.278 949.465 679.324 931.322C651.371 913.179 617.437 908.491 584.626 905.01C581.043 904.63 577.355 904.267 573.894 905.301C562.15 908.806 559.89 924.768 559.875 937.434C559.815 987.449 559.756 1037.46 559.697 1087.48C559.694 1089.95 559.766 1092.65 561.296 1094.55C563.696 1097.53 568.182 1096.96 571.84 1096.13Z" fill="#e1d9cd" fill-rule="evenodd" opacity="1" stroke="none"/>
<path d="M2465.98 1412.55C2444.3 1412.31 2422.67 1408.43 2402.17 1401.1C2314.45 1369.72 2255.08 1269.34 2267.91 1174.09C2280.73 1078.84 2364.35 999.146 2457.01 993.855C2549.67 988.564 2641.22 1058.26 2664.07 1151.47C2686.92 1244.68 2638.55 1351.21 2554.69 1392.39C2527.09 1405.94 2496.51 1412.89 2465.98 1412.55M2469.27 1060.95C2464.33 1062.21 2460.65 1066.4 2457.52 1070.56C2438.06 1096.48 2428.21 1128.95 2423.71 1161.46C2415.61 1219.91 2423.98 1280.71 2447.52 1334.49C2451.29 1343.1 2458.45 1353.04 2467.21 1350.43C2470.34 1349.5 2472.82 1347.06 2474.97 1344.53C2489.6 1327.31 2494.44 1303.67 2498.65 1281.15C2511.27 1213.55 2522.18 1140.18 2492.52 1078.57C2487.88 1068.92 2479.37 1058.38 2469.27 1060.95Z" fill="#e1d9cd" fill-rule="evenodd" opacity="1" stroke="none"/>
<path d="M2860.35 1589.5C2834.72 1584.12 2803.85 1570.23 2803.63 1543.12C2803.4 1515.71 2836.48 1500.9 2862.72 1504.35C2888.97 1507.8 2913.67 1521.81 2940.12 1521.32C2954.93 1521.04 2960.36 1498.02 2951.07 1486.06C2941.79 1474.11 2925.46 1471.35 2910.66 1470.66C2846.54 1467.65 2781.62 1487.96 2729.82 1527.25C2770.17 1546.24 2799.13 1588.97 2802.66 1634.75C2806.2 1680.53 2784.17 1727.49 2747.25 1752.89C2741.13 1757.1 2734.43 1760.82 2727.12 1761.62C2708.46 1763.67 2693.42 1746.93 2681.43 1731.97C2625.88 1662.67 2563.08 1597.82 2486.99 1554.26C2410.89 1510.71 2319.9 1490 2235.6 1511.98C2223.57 1515.12 2210.74 1519.87 2204.23 1530.81C2197.71 1541.76 2202.67 1559.96 2215.04 1560.95C2286.38 1566.66 2358.07 1567.58 2429.52 1563.71C2451.74 1562.51 2475.27 1561.12 2494.91 1571.94C2514.56 1582.77 2527.08 1610.91 2514.13 1629.66C2505.52 1642.12 2489.55 1645.93 2474.98 1648.52C2400.75 1661.72 2325.18 1666.84 2249.92 1663.79C2205.89 1662.01 2161.39 1657.3 2120.03 1641.55C2082.05 1627.1 2043.7 1597.21 2041.28 1555.36C2040.14 1535.69 2047.39 1516.3 2057.91 1499.88C2100.76 1432.99 2187.91 1416.43 2265.36 1414.27C2389.23 1410.81 2513.63 1428.95 2631.78 1467.68C2666.38 1479.02 2701.82 1455.66 2731.13 1433.48C2740.21 1426.61 2741.06 1413.14 2741.07 1401.49C2741.2 1244.76 2741.34 1088.04 2741.47 931.312C2741.49 913.297 2740.9 893.542 2729.44 879.996C2723.89 873.431 2715.68 867.982 2714.82 859.298C2713.55 846.617 2728.2 839.427 2740.08 836.115C2779.29 825.182 2818.5 814.248 2857.71 803.315C2865.76 801.069 2874.29 798.818 2882.33 801.136C2901.89 806.775 2905.68 833.359 2905.68 854.397C2905.61 1031.56 2905.54 1208.73 2905.47 1385.89C2925.98 1384.7 2946.5 1383.52 2967.02 1382.33C2924.08 1344.2 2922.95 1266.3 2964.76 1226.85C3000.61 1193.03 3054.6 1190.24 3096.13 1164.31C3106.91 1157.58 3117.18 1148.78 3121.99 1136.73C3126.81 1124.68 3124.58 1108.89 3114.24 1101.46C3103.9 1094.03 3086.27 1100.16 3085.03 1113.14C3097.71 1118.44 3099.68 1137.81 3091.9 1149.45C3084.11 1161.1 3070.33 1166.55 3057.17 1170.39C3031.29 1177.93 3001.03 1180.95 2979.76 1163.91C2952.61 1142.16 2954.49 1095.92 2976.08 1068.28C2997.67 1040.64 3032.59 1028.25 3066.4 1022.13C3103.32 1015.45 3141.95 1014.77 3177.69 1026.49C3213.42 1038.2 3246.04 1063.43 3261.92 1098.61C3297.55 1177.55 3241.95 1277.02 3277.74 1355.87C3281.97 1365.19 3287.53 1375.45 3284.15 1385.12C3282.16 1390.79 3277.42 1394.9 3272.57 1398.23C3233.29 1425.14 3173.56 1411.26 3149.14 1369.54C3134.7 1344.88 3132.39 1314.87 3130.45 1286.1C3129.13 1266.42 3127.8 1246.74 3126.47 1227.06C3109.94 1243.58 3092.75 1261.2 3086.47 1284.09C3080.19 1306.97 3089.62 1336.32 3111.75 1342.64C3131.57 1348.29 3133.33 1379.81 3119.06 1395.14C3104.78 1410.47 3082.61 1413.75 3062.18 1416.15C3088.83 1445.53 3090.06 1493.81 3070.53 1528.68C3051 1563.56 3014.31 1585.59 2976.2 1593.72C2938.1 1601.86 2898.49 1597.52 2860.35 1589.5Z" fill="#e1d9cd" fill-rule="evenodd" opacity="1" stroke="none"/>
<path d="M2162.06 855.646C2166.77 897.175 2133.31 934.468 2095.76 949.771C2058.22 965.075 2016.72 964.58 1976.67 969.639C1973.66 1008.51 1973.13 1047.58 1975.08 1086.52C1980.79 1071.51 1996.11 1063.53 2008.26 1053.45C2020.41 1043.37 2030.46 1025.1 2021.61 1011.83C2016.93 1004.82 2021.2 994.482 2028.24 990.065C2035.28 985.649 2043.97 985.515 2052.2 985.51C2092.48 985.487 2132.76 985.463 2173.04 985.439C2182.35 985.434 2192 985.503 2200.43 989.574C2208.87 993.645 2215.73 1002.93 2214.12 1012.43C2212.35 1022.93 2201.46 1029.09 2191.3 1030.78C2181.15 1032.47 2170.54 1031.28 2160.72 1034.45C2148.28 1038.47 2138.89 1048.84 2130.1 1058.8C2113.02 1078.15 2095.95 1097.5 2078.87 1116.85C2072.52 1124.04 2066.46 1136.35 2074.06 1142.1C2114.05 1172.39 2112.86 1236.91 2146.96 1274.14C2160.82 1289.27 2180.18 1298.86 2200.25 1300.55C2216.05 1301.88 2236.11 1300.79 2242.94 1315.62C2249.92 1330.77 2235.4 1346.89 2221.68 1355.82C2183.45 1380.69 2136.04 1394.88 2092.69 1381.83C2031.67 1363.46 1996.45 1299.2 1967.54 1240.56C1952.71 1279.36 1960.1 1326.33 1986.06 1358.23C1994.09 1368.1 1988.14 1384.42 1977.49 1391.11C1966.84 1397.8 1953.6 1397.6 1941.15 1397.2C1898.57 1395.84 1855.98 1394.47 1813.4 1393.1C1799.54 1392.66 1782.85 1390.37 1777.14 1377.27C1768.32 1357.05 1794.05 1340.48 1805.67 1321.84C1814.88 1307.06 1815.16 1288.36 1815.15 1270.77C1815.04 1153.17 1814.92 1035.56 1814.81 917.962C1814.81 913.377 1814.76 908.59 1812.72 904.521C1810.08 899.254 1804.68 896.236 1799.58 893.529C1714.77 848.494 1628.64 802.971 1535.3 783.088C1502.85 776.177 1467.42 772.851 1438.09 788.8C1430.93 792.694 1423.87 798.322 1421.81 806.425C1419.75 814.529 1425.49 824.812 1433.55 824.104C1454.92 822.224 1472.44 845.903 1471.16 868.088C1469.88 890.273 1454.83 909.275 1437.43 922.272C1412.43 940.949 1381.18 950.453 1350.41 948.737C1332.62 947.746 1314.85 943.012 1299.62 933.445C1256.84 906.568 1242.99 844.396 1260.71 795.912C1278.43 747.428 1321.47 712.549 1368.23 694.141C1455.37 659.844 1554.4 676.355 1640.61 713.064C1726.83 749.773 1804.13 805.321 1885.63 852.189C1917.93 870.762 1953.44 888.509 1990.13 884.112C1996.82 883.31 2003.96 881.45 2008.22 876.048C2016.59 865.451 2007.86 848.432 1995.64 843.215C1983.42 837.997 1969.63 840.263 1956.42 840.222C1926.96 840.131 1897.73 827.53 1876.9 805.95C1869.98 798.778 1871.27 786.128 1877.28 778.121C1883.28 770.113 1892.7 765.77 1901.9 762.323C1967.48 737.765 2043.31 744.528 2103.88 780.337C2131.86 796.882 2158.31 822.484 2162.06 855.646Z" fill="#e1d9cd" fill-rule="evenodd" opacity="1" stroke="none"/>
</g>
<g id="Capa-2" vectornator:layerName="Capa 2">
<path d="M1591.2 1092.14C1592.06 1078.94 1574.8 1071.02 1563.19 1076.53C1551.59 1082.05 1545.47 1095.28 1541.67 1107.91C1530.93 1143.57 1531.4 1182.75 1543 1218.11C1549.83 1238.93 1561.02 1259.09 1578.67 1271.29C1596.32 1283.48 1621.31 1285.87 1638.38 1272.81C1663.39 1253.68 1664.5 1209.72 1692.87 1196.57C1717.35 1185.23 1746.93 1208.06 1751.97 1235.36C1757.01 1262.66 1744.17 1290.25 1727.7 1312.18C1677.71 1378.72 1588.98 1411.26 1509.79 1391.86C1430.61 1372.46 1365.26 1302.02 1349.92 1219.2C1334.58 1136.39 1370.22 1045.74 1437.2 997.856C1504.18 949.968 1598.76 947.669 1667.7 992.477C1703.28 1015.61 1732.94 1052.72 1737.09 1096.03C1741.25 1139.35 1713.18 1186.68 1671.59 1192.8C1656.6 1195.01 1641.37 1192.03 1626.66 1188.33C1602.16 1182.18 1575.86 1172.12 1563.73 1149.22C1551.6 1126.31 1566.12 1089.53 1591.2 1092.14M1654.81 1276.08C1636.31 1297.44 1602.78 1299.65 1578.31 1286.2C1553.84 1272.75 1537.68 1246.81 1528.85 1219.6C1517.21 1183.7 1516.78 1144 1527.65 1107.84C1533.86 1087.17 1546.05 1065.63 1566.34 1060.5C1586.64 1055.37 1610.76 1079.35 1599.62 1097.67C1592.36 1109.61 1575.69 1111.66 1567.14 1122.65C1581.31 1155.6 1613.89 1180.16 1648.69 1180.52C1683.5 1180.88 1717.87 1154.84 1725.07 1119.54C1733.14 1079.97 1708.08 1040.45 1676.98 1016.01C1613.5 966.13 1520.01 961.793 1452.49 1005.59C1384.97 1049.39 1347.87 1138.43 1363.42 1219.4C1378.97 1300.37 1446.12 1367.91 1524.68 1381.58C1603.24 1395.26 1688.01 1354.16 1728.22 1282.89C1735.57 1269.88 1741.65 1255.29 1740.61 1240.26C1739.56 1225.23 1729.41 1210.02 1715 1207.99C1699.35 1205.77 1685.5 1219.05 1677.71 1233.29C1669.92 1247.52 1665.36 1263.9 1654.81 1276.08Z" fill="#f3af22" fill-rule="evenodd" opacity="1" stroke="none"/>
<path d="M880.079 901.7C929.662 999.066 889.81 1134.31 796.201 1186.36C869.253 1279.62 880.893 1408.44 932.365 1516.07C948.427 1549.66 969.32 1582.15 999.685 1602.52C1030.05 1622.89 1071.5 1628.76 1102.35 1609.19C1119.71 1598.18 1132.32 1572 1118.41 1556.61C1106.79 1543.75 1105.75 1523.26 1112.39 1507.05C1119.03 1490.83 1132.08 1478.33 1146.07 1468.33C1205.55 1425.82 1299.18 1428.82 1339.67 1490.84C1367.13 1532.91 1363.32 1591.55 1338.22 1635.18C1313.13 1678.81 1269.96 1708.72 1224.09 1726.59C1143.98 1757.79 1052.89 1755.27 972.98 1723.54C893.071 1691.82 824.562 1631.81 777.577 1557.69C710.076 1451.2 680.996 1311.79 579.364 1240.1C574.92 1278.01 570.805 1318.26 586.409 1352.85C593.684 1368.98 605.331 1384.61 603.688 1402.34C602.163 1418.78 588.934 1432.02 574.084 1438.01C559.234 1444.01 542.875 1444.14 526.939 1444.2C488.549 1444.33 450.158 1444.47 411.768 1444.6C398.988 1444.65 384.672 1444.05 375.844 1434.47C359.998 1417.29 374.47 1390.02 383.226 1368.05C394.323 1340.21 394.735 1309.22 394.986 1279.1C395.705 1192.89 396.424 1106.68 397.143 1020.48C397.425 986.61 396.831 949.9 376.82 923.124C350.912 888.458 299.993 883.614 260.763 900.035C244.63 906.788 228.462 918.141 223.907 935.544C219.353 952.946 233.619 975.017 250.593 971.06C232.443 950.183 251.096 912.863 277.741 907.657C304.386 902.451 330.728 920.228 347.337 942.44C369.465 972.034 379.715 1012.03 370.267 1048.16C359.801 1088.19 325.918 1119.38 287.291 1130.23C248.665 1141.08 206.417 1133.04 171.327 1113.09C127.732 1088.32 92.9681 1041.51 93.6177 989.984C94.0112 958.783 106.94 929.198 122.331 902.38C138.238 874.663 157.536 848.243 183.301 830.159C231.232 796.517 293.293 796.516 351.171 797.728C465.381 800.119 579.592 802.511 693.802 804.902C728.851 805.636 764.836 806.563 797.258 820.377C833.152 835.67 861.966 866.13 880.079 901.7M1316.52 1483.01C1276.39 1441.12 1207.03 1446 1158.16 1476.34C1145.31 1484.31 1132.9 1494.28 1126.24 1508.19C1119.59 1522.1 1120.2 1540.69 1131.04 1551.4C1147.55 1567.7 1137.14 1597.83 1119.55 1612.86C1084.48 1642.83 1030.3 1638.44 992.135 1612.88C953.967 1587.31 929.293 1544.95 911.235 1501.73C866.171 1393.88 851.488 1267.73 773.802 1182.1C826.486 1159.11 867.997 1110.23 883.313 1053.15C898.629 996.075 887.427 932.004 853.761 884.125C837.637 861.194 816.204 841.643 790.606 831.579C766.409 822.066 739.937 821.422 714.063 820.893C582.483 818.203 450.903 815.512 319.323 812.822C290.622 812.235 261.367 811.723 233.881 820.307C196.299 832.045 164.976 860.161 142.101 893.218C122.739 921.2 108.429 954.27 108.608 988.703C108.86 1037.07 139.106 1082.47 180.277 1105.25C229.59 1132.53 297.082 1126.2 334.357 1083.03C371.632 1039.86 365.759 961.578 317.774 931.867C305.35 924.174 289.907 919.883 276.309 925.018C262.711 930.153 253.001 947.124 258.881 960.829C264.782 974.58 247.868 989.98 233.862 986.006C219.855 982.032 211.92 965.895 211.409 950.854C210.549 925.565 226.326 901.64 247.529 889.092C268.733 876.544 294.426 874.159 318.608 877.661C352.627 882.588 387.206 901.116 401.153 933.648C409.584 953.315 409.596 975.593 409.462 997.113C408.839 1097.61 408.216 1198.11 407.593 1298.6C407.379 1333.13 405.909 1371.14 383.324 1396.53C375.688 1405.11 380.617 1420.14 390.11 1426.42C399.602 1432.71 411.599 1432.76 422.864 1432.6C458.731 1432.09 494.599 1431.59 530.467 1431.08C545.758 1430.87 561.918 1430.4 574.884 1422C587.851 1413.59 595.488 1394.24 586.558 1381.37C557.347 1339.28 561.453 1282.43 566.816 1230.88C567.26 1226.62 568.325 1221.5 572.242 1220.12C575.675 1218.91 579.217 1221.37 582.053 1223.71C607.236 1244.52 631.241 1267.08 651.607 1292.94C711.167 1368.55 736.062 1467.2 787.537 1548.94C832.153 1619.79 897.333 1677.13 973.302 1708.1C1049.27 1739.07 1135.81 1742.94 1213.08 1715.66C1259.77 1699.18 1304.39 1669.9 1328.52 1625.32C1352.65 1580.74 1351.27 1519.28 1316.52 1483.01Z" fill="#f3af22" fill-rule="evenodd" opacity="1" stroke="none"/>
<path d="M2644.47 1087.59C2685.69 1156.52 2679.47 1250.46 2635.26 1317.37C2581.58 1398.63 2469.26 1436.7 2384.34 1392.5C2358.24 1378.91 2335.68 1358.79 2316.35 1336.1C2297.46 1313.93 2281.35 1288.97 2270.86 1261.47C2244.93 1193.41 2257.28 1111.26 2301.96 1054.6C2346.65 997.942 2421.87 969.051 2491.39 981.848C2519.94 987.103 2547.2 998.818 2571.86 1014.61C2600.8 1033.14 2626.55 1057.62 2644.47 1087.59M2330.9 1335.7C2383.56 1393.51 2472.05 1412.22 2542.61 1381.03C2613.17 1349.84 2661.3 1271.18 2659.1 1191.72C2656.91 1112.25 2604.9 1036.85 2533.3 1008.33C2461.7 979.799 2374.75 999.422 2320.59 1055.73C2286 1091.7 2264.59 1142.41 2268.01 1193.07C2269.73 1218.59 2277.5 1243.33 2287.69 1266.63C2298.67 1291.73 2312.64 1315.65 2330.9 1335.7Z" fill="#f3af22" fill-rule="evenodd" opacity="1" stroke="none"/>
<path d="M1982.36 978.471C1979.54 1005.51 1979.19 1032.82 1981.32 1059.92C1999.45 1047.56 2020.13 1028.19 2013.08 1006.92C2009.87 997.241 2015.91 986.345 2024.37 981.065C2032.84 975.784 2043.08 974.805 2052.94 974.13C2094.87 971.257 2137.01 971.565 2178.9 975.05C2188.35 975.836 2198.27 976.957 2206.05 982.582C2216.44 990.098 2220.66 1005.54 2215.62 1017.59C2210.58 1029.64 2196.82 1037 2184.43 1034.29C2166 1030.25 2149.3 1045.38 2136.11 1059.33C2120.17 1076.19 2104.22 1093.05 2088.28 1109.91C2082.11 1116.43 2076.01 1127.66 2082.84 1133.43C2107.29 1154.06 2116.65 1187.67 2127.79 1218.23C2138.93 1248.79 2156.39 1281.22 2186.7 1290.21C2198.2 1293.63 2210.47 1293.22 2222.11 1296.14C2233.74 1299.05 2245.64 1306.78 2248 1318.94C2250.46 1331.58 2241.85 1343.58 2232.69 1352.31C2191.94 1391.14 2128.41 1401.87 2077.88 1378.45C2031.93 1357.16 2000.48 1312.86 1971.67 1270.09C1956.38 1286.29 1970.31 1312.81 1983.46 1330.91C1996.61 1349.02 2007.34 1378.39 1989.17 1391C1983.53 1394.91 1976.47 1395.73 1969.7 1396.35C1915.73 1401.33 1861.29 1400.77 1807.42 1394.7C1793.02 1393.08 1776.41 1389.49 1769.94 1376.06C1764.05 1363.84 1769.61 1348.9 1777.59 1338.02C1785.56 1327.15 1796.01 1318.02 1801.73 1305.71C1807.84 1292.59 1807.83 1277.43 1807.71 1262.86C1806.72 1148.08 1805.74 1033.29 1804.76 918.511C1804.72 914.131 1804.64 909.579 1802.77 905.651C1800.2 900.248 1794.76 897.071 1789.64 894.219C1708.14 848.842 1624.66 802.755 1533.27 787.896C1497.48 782.078 1457.17 782.474 1429.66 806.9C1455.03 810.047 1473.54 837.498 1472.41 863.957C1471.27 890.416 1453.88 914.096 1431.85 927.521C1409.82 940.947 1383.73 945.425 1358.19 946.432C1337.59 947.244 1316.31 945.809 1297.64 936.737C1263.22 920.017 1243.73 878.591 1245.6 839.242C1247.48 799.894 1267.94 763.316 1295.37 736.034C1344.19 687.459 1414.02 665.948 1481.7 666.719C1549.38 667.49 1615.43 688.708 1677.71 716.185C1727.27 738.051 1775.15 763.999 1820.76 793.703C1867.01 823.831 1912.77 858.621 1966.51 868.847C1979.69 871.356 1996.53 870.448 2002.25 857.885C1984.03 843.616 1959.99 841.121 1937.42 837.583C1914.84 834.046 1890.56 827.775 1876.54 809.094C1862.53 790.414 1867.6 756.275 1889.9 751.227C1932.44 741.604 1976.35 735.526 2019.5 741.534C2062.65 747.541 2105.27 766.667 2133.75 800.788C2144.53 813.696 2153.26 828.901 2156.32 845.673C2163.58 885.552 2136.49 925.318 2101.97 944.481C2067.46 963.644 2027.04 966.811 1987.96 969.422C1984.19 969.674 1982.76 974.581 1982.36 978.471M1492.16 771.286C1600.31 773.23 1700.27 827.654 1795.53 880.747C1802.23 884.483 1809.21 888.47 1813.42 895.037C1818.41 902.803 1818.64 912.726 1818.7 922.052C1819.44 1029.31 1820.18 1136.56 1820.91 1243.82C1821.17 1280.67 1818.31 1323.9 1788.59 1344.12C1778.24 1351.16 1781.27 1369.13 1791.15 1376.84C1801.03 1384.56 1814.36 1384.98 1826.73 1385.07C1867.08 1385.39 1907.44 1385.7 1947.79 1386.02C1958.66 1386.1 1970.38 1385.92 1979.14 1379.25C1987.91 1372.58 1990.7 1356.78 1981.64 1350.56C1952.02 1330.22 1952.73 1285.72 1956.75 1249.14C1957.42 1243.06 1965.55 1240.68 1970.78 1243.51C1976.01 1246.35 1978.9 1252.21 1981.6 1257.64C2004.9 1304.39 2040.28 1346.97 2087.46 1366.41C2134.64 1385.85 2194.48 1377.21 2227.18 1336.96C2229.31 1334.34 2231.38 1331.48 2232.09 1328.12C2233.8 1320.05 2226.9 1312.39 2219.33 1309.79C2211.76 1307.2 2203.55 1308.02 2195.62 1307.25C2157.18 1303.51 2131.92 1264.3 2117.1 1227.35C2102.29 1190.4 2090.08 1148.79 2058.26 1126.13C2081.74 1099.98 2105.23 1073.82 2128.71 1047.67C2139.21 1035.98 2150.86 1023.62 2166.07 1021.02C2174.25 1019.62 2182.78 1021.23 2190.83 1019.19C2198.89 1017.15 2206.71 1009.05 2204.15 1000.87C2201.68 992.955 2191.95 990.944 2183.94 990.331C2140.9 987.032 2097.72 985.685 2054.57 986.297C2041.6 986.481 2023.59 993.532 2027.56 1006.33C2035.91 1033.19 2009.48 1056.96 1986.43 1071.99C1980.94 1075.57 1972.71 1078.71 1968.89 1073.28C1967.26 1070.97 1967.22 1067.9 1967.24 1065.04C1967.42 1040.29 1967.6 1015.53 1967.77 990.777C1967.88 975.43 1972.59 954.957 1987.4 954.869C2033.71 954.594 2082.81 946.108 2117.58 914.409C2128.68 904.297 2138.16 891.647 2141.95 876.848C2148.59 850.873 2136.35 823.085 2118.36 803.736C2092.02 775.412 2054.3 760.832 2016.63 756.039C1978.96 751.246 1940.82 755.37 1903.08 759.496C1884.14 761.566 1879.15 791.249 1891.71 806.091C1904.26 820.933 1925.19 823.939 1944.22 824.79C1963.25 825.642 1983.67 825.747 1999.25 837.106C2007.22 842.917 2013.57 852.48 2012.43 862.51C2010.28 881.514 1985.86 886.937 1967.59 884.153C1921.62 877.144 1881.26 849.899 1841.84 824.394C1782.42 785.946 1721.28 749.88 1656.4 722.483C1600.04 698.679 1540.19 681.413 1479.32 681.502C1418.45 681.591 1356.25 700.262 1310.17 741.481C1285.22 763.805 1265.01 793.463 1259.64 827.17C1254.27 860.876 1266.06 898.545 1293.39 917.652C1307.2 927.306 1323.89 931.768 1340.49 933.111C1367.12 935.265 1394.3 929.658 1418.1 917.098C1438.72 906.218 1458.1 887.631 1460.05 863.739C1461.99 839.846 1437.26 815.026 1416.34 825.274C1413.63 807.303 1425.5 789.551 1440.94 780.899C1456.38 772.248 1474.62 770.97 1492.16 771.286Z" fill="#f3af22" fill-rule="evenodd" opacity="1" stroke="none"/>
<path d="M1324.66 1134.25C1330.1 1155.8 1331.46 1178.35 1329.74 1200.56C1324.12 1273.12 1283.38 1342.57 1222.17 1378.3C1160.97 1414.03 1080.79 1413.57 1021.59 1374.38C998.708 1359.24 979.206 1338.98 963.098 1316.33C925.638 1263.66 906.449 1195.19 919.839 1131.25C936.726 1050.61 1006.71 986.138 1085.5 974.18C1164.28 962.223 1247.24 1001.22 1293.81 1068.15C1307.7 1088.12 1318.65 1110.44 1324.66 1134.25M1004.49 1022.18C985.273 1037.07 969.546 1056.43 956.822 1077.51C939.858 1105.62 927.898 1137.65 926.779 1170.78C925.661 1203.9 935.388 1236.6 949.631 1266.27C966.122 1300.62 989.158 1332.13 1019.25 1354.47C1087.79 1405.35 1190.2 1398.39 1252.84 1339.92C1315.49 1281.45 1333.17 1178 1295.19 1099.99C1257.22 1021.99 1167.73 975.363 1084.39 988.563C1055.69 993.109 1027.75 1004.16 1004.49 1022.18Z" fill="#f3af22" fill-rule="evenodd" opacity="1" stroke="none"/>
<path d="M2744.07 1517.13C2784.96 1540.59 2811.55 1588.63 2810.44 1637.05C2809.32 1685.48 2780.57 1732.15 2738.64 1753.56C2731.16 1757.38 2722.93 1760.51 2714.65 1759.47C2700.63 1757.71 2690.69 1744.96 2682.05 1733.39C2597.62 1620.29 2480.66 1523.35 2343.63 1506.7C2296.13 1500.93 2243.26 1506.99 2209.14 1541.71C2282.18 1564.08 2360.33 1551.46 2436.45 1554.37C2462.14 1555.35 2490.24 1559.33 2507.68 1578.9C2525.13 1598.47 2521.11 1637.97 2496.02 1643.81C2373.78 1672.31 2243.38 1684.56 2125.1 1641.75C2091.3 1629.52 2056.2 1609.94 2043.17 1575.39C2032.21 1546.33 2040.02 1512.14 2057.84 1487C2075.66 1461.86 2102.23 1444.72 2129.94 1432.52C2190.41 1405.91 2257.64 1400.53 2323.31 1402.36C2427.49 1405.25 2531.2 1425.53 2629.23 1462.17C2640.31 1466.31 2652.24 1459.99 2662.43 1453.88C2680.59 1442.98 2698.75 1432.09 2716.91 1421.19C2722.33 1417.94 2727.99 1414.44 2731.13 1408.82C2734.32 1403.1 2734.36 1396.14 2734.32 1389.53C2733.28 1232.11 2732.24 1074.68 2731.21 917.25C2731.12 903.61 2730.76 889.054 2723.31 877.81C2718.5 870.54 2710.83 864.835 2708.99 856.223C2705.34 839.072 2725.86 828.146 2742.26 823.685C2783.85 812.366 2825.45 801.047 2867.05 789.728C2873.6 787.947 2880.48 786.158 2887.05 787.86C2904.34 792.337 2907.95 815.763 2908.05 834.227C2908.94 1000.82 2909.83 1167.42 2910.73 1334.01C2910.79 1346.03 2911.27 1359.22 2919.02 1368.15C2926.78 1377.09 2944.45 1376.35 2947.07 1364.65C2914.71 1333.36 2915.82 1276.05 2941.75 1238.88C2967.68 1201.7 3012.29 1182.66 3056.26 1177.39C3035.77 1169.62 3012.41 1177.91 2991.38 1171.9C2962.76 1163.72 2946.17 1128.99 2951.41 1098.7C2956.65 1068.42 2979.47 1043.76 3006.07 1030.09C3032.67 1016.42 3062.8 1012.22 3092.41 1009.96C3147.96 1005.72 3210.86 1010.78 3247.7 1054.07C3281.67 1093.97 3282.08 1153.06 3277.38 1206.04C3272.67 1259.03 3265.29 1315.49 3288.48 1362.97C3297.08 1380.6 3278.74 1400.02 3260.73 1406.49C3215.78 1422.63 3161.04 1400.25 3138.82 1356.66C3128.18 1335.79 3124.7 1311.92 3121.38 1288.56C3119.43 1274.82 3117.47 1261.09 3115.52 1247.35C3084.43 1264.59 3086.48 1320.73 3118.74 1335.48C3136.58 1343.64 3137.68 1371.67 3125.57 1387.51C3113.46 1403.35 3093.59 1410 3074.92 1415.82C3107.97 1464.94 3084.59 1538.51 3037.08 1572.59C2989.57 1606.67 2926.68 1608.52 2870.05 1596.61C2850 1592.39 2829.47 1586.19 2814.28 1571.98C2799.09 1557.78 2790.89 1533.59 2800.1 1514.66C2811.91 1490.38 2844.13 1486.56 2869.83 1492C2895.53 1497.44 2921.4 1508.88 2947.04 1503.2C2937.67 1474.44 2900.38 1469.88 2871.37 1474.03C2826.91 1480.39 2783.57 1495.06 2744.07 1517.13M2948.91 1513.61C2943.26 1518.95 2935.16 1520.52 2927.52 1520.43C2904.63 1520.16 2883.66 1507.25 2861.07 1503.42C2838.48 1499.59 2809.4 1511.37 2808.9 1535.09C2808.42 1557.45 2832.69 1570.55 2853.44 1576.72C2890.75 1587.8 2930.2 1594.12 2968.45 1587.25C3006.69 1580.38 3043.73 1558.88 3063.58 1524.31C3083.42 1489.73 3082.6 1441.64 3056.5 1411.87C3068.84 1399.43 3088.01 1398.39 3103.24 1390.06C3118.46 1381.73 3127.68 1355.93 3112.41 1347.69C3089.4 1335.27 3075.28 1307.17 3078.64 1280.52C3082 1253.86 3102.61 1230.47 3127.92 1224.59C3129.46 1262.85 3131.23 1302.18 3146.36 1337.12C3161.48 1372.06 3193.32 1402.02 3230.26 1402.36C3255.54 1402.58 3284.07 1377.08 3272.37 1353.86C3232.25 1274.25 3294.61 1168.78 3253.49 1089.72C3235.4 1054.93 3199.5 1032.65 3162.11 1024.88C3124.72 1017.11 3085.85 1022.33 3048.84 1031.87C3025.68 1037.84 3002.11 1045.97 2984.61 1062.78C2967.1 1079.59 2957.22 1107.12 2966.65 1129.84C2981.88 1166.5 3033.22 1167.42 3067.96 1150.18C3080.07 1144.17 3093.08 1129.2 3084.46 1118.53C3073.44 1104.91 3089.51 1081.54 3106.47 1084.19C3123.43 1086.83 3133.59 1107.52 3130.37 1124.97C3127.15 1142.43 3114.1 1156.28 3099.75 1166C3049.78 1199.88 2975.21 1200.46 2946.3 1254.61C2925.88 1292.85 2939.88 1342.34 2966.38 1376.34C2953.67 1382.19 2940.29 1388.18 2926.41 1387.06C2912.54 1385.94 2898.34 1375.07 2898.27 1360.65C2897.39 1183.78 2896.51 1006.9 2895.63 830.028C2895.59 821.607 2895.02 812.004 2888.7 806.715C2882.01 801.122 2872.25 803.113 2863.95 805.39C2822.42 816.772 2780.9 828.154 2739.37 839.536C2729.36 842.28 2717.28 854.701 2725.94 860.587C2742.04 871.533 2743.83 894.843 2743.95 914.8C2744.94 1075 2745.93 1235.2 2746.92 1395.4C2746.96 1402.79 2746.9 1410.61 2743.23 1416.95C2739.97 1422.6 2734.32 1426.23 2728.88 1429.64C2706.66 1443.57 2684.43 1457.51 2662.21 1471.45C2653.65 1476.82 2643.52 1482.38 2634.12 1478.82C2553.15 1448.17 2468.52 1427.94 2382.78 1418.76C2299.87 1409.87 2213.63 1411.78 2136.59 1444.75C2109.58 1456.31 2083.2 1472.35 2066.44 1497.16C2049.69 1521.97 2044.66 1557.06 2060.39 1582.59C2071.22 1600.18 2089.85 1610.8 2108.31 1619.14C2226.15 1672.41 2361.7 1660.32 2487.42 1632.48C2506.44 1628.27 2508.14 1597.55 2493.89 1583.82C2479.63 1570.1 2458.29 1568.92 2438.84 1568.49C2365.12 1566.87 2291.41 1565.26 2217.69 1563.64C2203 1563.32 2195.87 1542.18 2202.83 1528.76C2209.79 1515.34 2224.71 1508.82 2238.81 1504.52C2323.68 1478.64 2417.18 1498.64 2494.7 1542.84C2572.21 1587.03 2635.68 1653.56 2692.35 1723.96C2701.85 1735.77 2714.19 1748.96 2728.81 1746.36C2736.69 1744.96 2743.06 1739.11 2748.69 1733.23C2775.87 1704.79 2796.88 1667.59 2797.55 1627.56C2798.23 1587.54 2774.26 1545.76 2736.89 1535.62C2728.51 1533.34 2725.84 1521.31 2729.83 1513.33C2733.81 1505.36 2741.96 1500.72 2749.78 1496.84C2796.52 1473.69 2848.26 1461.46 2900.07 1461.31C2915.31 1461.26 2931.62 1462.64 2943.62 1472.37C2955.62 1482.1 2960.17 1502.97 2948.91 1513.61M3120.4 1107.58C3119.55 1104.48 3116.07 1103.21 3113.07 1102.38C3108.46 1101.12 3103.46 1099.88 3099.03 1101.71C3094.61 1103.55 3091.72 1109.9 3094.88 1113.61C3101.85 1121.81 3102.35 1135.15 3096 1143.88C3108.08 1139.4 3114.32 1125.92 3119.35 1113.69C3120.14 1111.75 3120.96 1109.61 3120.4 1107.58Z" fill="#f3af22" fill-rule="evenodd" opacity="1" stroke="none"/>
<path d="M1128.35 1037.59C1135.76 1037.55 1142.09 1043.1 1146.69 1049.11C1158.37 1064.39 1163.34 1083.96 1166.6 1103.14C1179.16 1177.07 1170.1 1254.79 1140.94 1323.49C1135.6 1336.06 1117.83 1338.14 1106.66 1330.75C1095.5 1323.37 1089.65 1309.93 1085.3 1296.96C1059.02 1218.56 1066.91 1128.6 1106.39 1056.39C1111.31 1047.4 1118.38 1037.64 1128.35 1037.59M1122.53 1321.68C1135.43 1309.61 1140.72 1291.25 1144.86 1273.75C1161.69 1202.66 1168.38 1124.64 1137.67 1058.72C1135.39 1053.82 1128.53 1052.95 1123.94 1055.59C1119.34 1058.22 1116.53 1063.2 1114.07 1068.01C1079.88 1135.14 1073.49 1216.88 1096.81 1288.84C1101.33 1302.81 1108.73 1318.12 1122.53 1321.68Z" fill="#f3af22" fill-rule="evenodd" opacity="1" stroke="none"/>
<path d="M576.64 895.473C614.616 898.719 655.079 902.949 684.802 927.66C703.118 942.889 715.744 965.286 719.55 989.3C721.477 1001.46 721.137 1014.32 716.387 1025.62C709.441 1042.14 694.179 1053.16 678.846 1061.66C646.464 1079.62 610.361 1090.33 573.714 1092.85C569.353 1093.15 564.423 1093.12 561.339 1089.91C558.486 1086.94 558.244 1082.3 558.176 1078.11C557.392 1029.63 556.609 981.137 555.825 932.649C555.694 924.524 555.612 916.121 558.671 908.639C561.729 901.156 568.825 894.806 576.64 895.473M585.523 911.54C578.077 911.057 567.852 913.303 567.968 921.034C568.731 972.006 569.495 1022.98 570.258 1073.95C570.288 1075.98 570.523 1078.38 572.23 1079.37C573.26 1079.96 574.523 1079.83 575.693 1079.68C604.627 1075.86 633.037 1067.8 659.815 1055.82C681.473 1046.12 704.51 1030.24 706.983 1005.93C709.96 976.667 691.498 948.427 667.229 933.156C642.96 917.884 613.86 913.376 585.523 911.54Z" fill="#f3af22" fill-rule="evenodd" opacity="1" stroke="none"/>
<path d="M2450.88 1061.11C2457.48 1051.75 2468.31 1042.3 2478.63 1046.77C2482.04 1048.25 2484.73 1051.08 2487.08 1054.04C2500.39 1070.72 2505.75 1092.64 2509.06 1114.01C2519.07 1178.63 2513.56 1245.77 2493.15 1307.71C2489.54 1318.65 2485.11 1329.97 2476.37 1337.16C2467.62 1344.34 2453.31 1345.48 2446.13 1336.62C2415.6 1298.92 2410.73 1245.76 2413.03 1196.59C2415.26 1148.94 2423.71 1099.62 2450.88 1061.11M2482.55 1068.12C2480.53 1062.06 2472.36 1060.42 2466.86 1063.35C2461.36 1066.28 2458.01 1072.17 2455.16 1077.86C2420.23 1147.4 2415.36 1232.44 2442.09 1305.77C2444.68 1312.9 2447.89 1320.33 2454.05 1324.49C2460.21 1328.64 2470.11 1327.59 2473.05 1320.61C2506.36 1241.61 2509.83 1149.57 2482.55 1068.12Z" fill="#f3af22" fill-rule="evenodd" opacity="1" stroke="none"/>
</g>
</svg>
