<?xml version="1.0" encoding="UTF-8" standalone="no"?>
<!DOCTYPE svg PUBLIC "-//W3C//DTD SVG 1.1//EN" "http://www.w3.org/Graphics/SVG/1.1/DTD/svg11.dtd">
<!-- Created with Vectornator (http://vectornator.io/) -->
<svg height="100%" stroke-miterlimit="10" style="fill-rule:nonzero;clip-rule:evenodd;stroke-linecap:round;stroke-linejoin:round;" version="1.1" viewBox="0 0 3370.82 2384.24" width="100%" xml:space="preserve" xmlns="http://www.w3.org/2000/svg" xmlns:vectornator="http://vectornator.io" xmlns:xlink="http://www.w3.org/1999/xlink">
<defs/>
<g id="Capa-1-copiar-copiar-copiar-copiar" vectornator:layerName="Capa 1 copiar copiar copiar copiar"/>
<g id="Capa-1-copiar-copiar-copiar-copiar_2" vectornator:layerName="Capa 1 copiar copiar copiar copiar"/>
<g id="Capa-1-copiar-copiar-copiar" vectornator:layerName="Capa 1 copiar copiar copiar"/>
<g id="Capa-1-copiar-copiar-copiar-copiar_3" vectornator:layerName="Capa 1 copiar copiar copiar copiar"/>
<g id="Capa-1-copiar-copiar-copiar-copiar_4" vectornator:layerName="Capa 1 copiar copiar copiar copiar"/>
<g id="Capa-2" vectornator:layerName="Capa 2">
<g opacity="1">
<path d="M2219.51 1528.58C2222.15 1562.31 2223.01 1596.2 2222.09 1630.03C2221.7 1644.63 2220.32 1660.82 2210.51 1670.68C2201.15 1680.09 2187.17 1680.61 2174.48 1680.61C1830.5 1680.6 1486.52 1680.58 1142.55 1680.57C1129.91 1680.56 1115.62 1679.78 1107.31 1669.32C1101.31 1661.75 1100.13 1651.06 1099.41 1641.05C1096.78 1604.17 1096.97 1567.04 1099.99 1530.19C1101.31 1514.04 1103.48 1497.08 1112.48 1484.24C1127.57 1462.71 1155.72 1460.18 1180.43 1459.51C1499.87 1450.95 1819.49 1450.69 2138.94 1458.76C2164.43 1459.41 2193.78 1462.24 2208.52 1485.11C2216.53 1497.54 2218.32 1513.41 2219.51 1528.58Z" fill="#591e4a" fill-rule="evenodd" opacity="1" stroke="none"/>
<path d="M1891.93 506.54C1895.39 497.202 1899.5 487.076 1907.75 482.666C1915.06 478.756 1923.72 480.413 1931.67 482.313C2108.97 524.72 2266.42 648.961 2371.04 811.937C2475.67 974.913 2529.01 1174.36 2535.22 1373.72C2535.56 1384.7 2535.06 1397.4 2527.16 1404.11C2521.58 1408.85 2513.95 1409.05 2506.89 1409.04C2464.81 1408.98 2422.73 1408.92 2380.64 1408.86C2361.24 1408.83 2335.58 1402.8 2334.35 1381.51C2325.35 1226.12 2285.62 1070.66 2205.38 942.354C2125.13 814.049 2002.09 714.993 1862.82 686.684C1838.56 681.753 1841.54 642.497 1850.85 617.377C1864.54 580.431 1878.24 543.486 1891.93 506.54Z" fill="#591e4a" fill-rule="evenodd" opacity="1" stroke="none"/>
<path d="M1108.68 1412.23C1094.82 1411.89 1076.48 1406.91 1076.29 1391.67C1073.56 1166.42 1187.82 943.88 1364.6 829.956C1541.37 716.033 1773.75 715.114 1951.32 827.536C2128.88 939.957 2244.78 1161.32 2244.12 1386.59C2244.06 1406.33 2220.25 1412.85 2202.31 1413.26C1837.81 1421.57 1473.16 1421.23 1108.68 1412.23M1248.13 1275.34C1522.56 1275.33 1796.98 1275.33 2071.41 1275.32C2078.4 1275.32 2086.61 1274.64 2090.39 1268.17C2093.57 1262.72 2092.1 1255.58 2090.41 1249.38C2035.46 1047.47 1851.67 897.045 1659.98 897.086C1468.28 897.128 1284.55 1047.63 1229.67 1249.56C1227.95 1255.88 1226.48 1263.22 1229.87 1268.66C1233.64 1274.73 1241.44 1275.34 1248.13 1275.34Z" fill="#591e4a" fill-rule="evenodd" opacity="1" stroke="none"/>
<path d="M1409.22 483.29C1420.59 488.322 1426.38 501.952 1431.11 514.389C1442.92 545.44 1454.72 576.49 1466.53 607.541C1477.61 636.693 1481.34 682.488 1453.09 688.265C1314.79 716.544 1193.09 815.954 1114.09 943.916C1035.09 1071.88 996.344 1226.31 986.851 1380.61C985.504 1402.5 959.139 1408.66 939.183 1408.68C898.148 1408.74 857.112 1408.8 816.077 1408.86C807.968 1408.87 799.15 1408.62 792.857 1403C784.413 1395.46 784.011 1381.68 784.48 1369.73C792.232 1172.15 845.15 974.756 948.449 812.845C1051.75 650.933 1207.09 526.724 1382.66 483.656C1391.44 481.502 1400.87 479.598 1409.22 483.29Z" fill="#591e4a" fill-rule="evenodd" opacity="1" stroke="none"/>
<path d="M806.602 2155.21C797.8 2155.25 788.057 2154.9 781.663 2148.25C774.837 2141.15 774.375 2129.58 774.374 2119.25C774.358 1969.73 774.342 1820.22 774.326 1670.7C774.324 1653.41 775.4 1633.56 787.84 1622.97C797.265 1614.95 810.254 1615.01 822.167 1615.43C857.419 1616.69 892.671 1617.94 927.923 1619.2C939.41 1619.61 952.114 1620.57 960.161 1629.6C968.033 1638.42 968.827 1652.04 969.138 1664.39C972.98 1817.23 973.698 1970.17 971.293 2123.05C970.913 2147.18 941.648 2154.63 919.694 2154.73C881.997 2154.89 844.299 2155.05 806.602 2155.21Z" fill="#591e4a" fill-rule="evenodd" opacity="1" stroke="none"/>
<path d="M2294.44 1543.98C2295.58 1520.22 2296.73 1496.46 2297.88 1472.71C2298.52 1459.31 2300.35 1443.68 2310.93 1436.99C2316.47 1433.49 2323.19 1433.39 2329.58 1433.38C2399.44 1433.34 2469.3 1433.29 2539.16 1433.24C2552.04 1433.24 2567.33 1434.67 2573.78 1446.93C2577 1453.04 2577.09 1460.48 2577.1 1467.55C2577.14 1489.13 2577.17 1510.72 2577.2 1532.31C2577.23 1550.38 2575.62 1571.81 2561.45 1580.97C2554.61 1585.39 2546.3 1585.77 2538.38 1586.03C2469.26 1588.29 2400.15 1590.55 2331.04 1592.81C2322.67 1593.09 2313.74 1593.2 2306.69 1588.24C2294.26 1579.51 2293.66 1560.16 2294.44 1543.98Z" fill="#591e4a" fill-rule="evenodd" opacity="1" stroke="none"/>
<path d="M2380.73 1620.05C2417.04 1618.47 2453.36 1616.89 2489.67 1615.31C2508.61 1614.49 2531.52 1615.97 2540.69 1634.21C2544.84 1642.48 2544.97 1652.38 2545 1661.83C2545.52 1818.09 2546.03 1974.35 2546.54 2130.61C2546.6 2149.3 2523.77 2155.19 2506.77 2155.14C2471.32 2155.05 2435.87 2154.95 2400.41 2154.85C2382.87 2154.8 2362.42 2153.15 2352.59 2137.17C2346.49 2127.25 2346.39 2114.44 2346.5 2102.47C2347.81 1961.67 2349.12 1820.87 2350.43 1680.07C2350.66 1654.68 2357.64 1621.06 2380.73 1620.05Z" fill="#591e4a" fill-rule="evenodd" opacity="1" stroke="none"/>
<path d="M1022.07 1471.58C1023.38 1494.9 1024.68 1518.21 1025.99 1541.53C1026.94 1558.47 1026.44 1578.77 1013.46 1587.96C1006.09 1593.19 996.708 1593.07 987.937 1592.79C919.04 1590.53 850.144 1588.27 781.247 1586.01C773.356 1585.75 765.081 1585.37 758.282 1580.96C744.235 1571.85 742.64 1550.6 742.669 1532.67C742.703 1510.87 742.738 1489.07 742.773 1467.26C742.784 1460.18 742.885 1452.72 746.151 1446.61C752.56 1434.63 767.545 1433.25 780.189 1433.26C850.357 1433.32 920.524 1433.37 990.692 1433.42C997.109 1433.43 1003.88 1433.53 1009.4 1437.12C1019.53 1443.69 1021.35 1458.68 1022.07 1471.58Z" fill="#591e4a" fill-rule="evenodd" opacity="1" stroke="none"/>
<path d="M1790.08 679.952C1779.25 690.663 1762.42 687.087 1748.36 682.864C1736.98 679.443 1723.83 674.2 1720.59 661.722C1719.27 656.603 1719.95 651.147 1720.64 645.879C1729.74 576.365 1738.85 506.851 1747.96 437.337C1749.73 423.814 1752.99 408.052 1764.4 402.638C1771.43 399.302 1779.51 401.099 1786.92 403.215C1812.4 410.488 1837.12 420.946 1860.46 434.323C1865.82 437.397 1871.39 440.924 1874.29 446.763C1878.89 456.062 1875.17 467.489 1871.4 477.235C1847.58 538.88 1823.76 600.524 1799.93 662.168C1797.44 668.611 1794.81 675.271 1790.08 679.952Z" fill="#591e4a" fill-rule="evenodd" opacity="1" stroke="none"/>
<path d="M1693.65 670.962C1690.24 675.341 1684.62 676.566 1679.45 677.529C1667.86 679.685 1655.89 681.831 1644.46 678.805C1633.03 675.78 1622.19 666.192 1620.75 653.367C1612.39 578.742 1604.02 504.118 1595.65 429.493C1594.35 417.863 1593.76 404.099 1601.94 396.589C1605.83 393.017 1611 391.685 1615.98 390.651C1645.65 384.495 1676.46 385.103 1705.91 392.426C1711.34 393.776 1717.02 395.536 1720.88 399.955C1727.19 407.194 1726.41 418.643 1725.22 428.584C1716.06 504.888 1706.91 581.191 1697.76 657.495C1697.19 662.259 1696.5 667.315 1693.65 670.962Z" fill="#591e4a" fill-rule="evenodd" opacity="1" stroke="none"/>
<path d="M1575.53 681.893C1557.25 688.343 1531.64 691.454 1524.11 672.038C1499.95 609.785 1475.8 547.531 1451.65 485.277C1446.39 471.731 1441.29 455.451 1448.55 443.077C1452.6 436.174 1459.67 432.255 1466.47 428.857C1487.42 418.392 1509.15 409.82 1531.38 403.255C1537.86 401.34 1544.74 399.595 1551.21 401.582C1565.8 406.065 1570.48 425.836 1572.67 442.316C1581.63 509.781 1590.6 577.247 1599.56 644.712C1600.43 651.263 1601.27 658.19 1598.97 664.312C1595.25 674.26 1584.85 678.606 1575.53 681.893Z" fill="#591e4a" fill-rule="evenodd" opacity="1" stroke="none"/>
<path d="M2109.1 1792.81C2109.46 1885.86 2109.81 1978.9 2110.17 2071.94C2110.25 2093.85 2109.89 2117.38 2098.3 2135.2C2080.68 2162.28 2045.6 2164.84 2015.31 2164.84C1774.72 2164.85 1534.13 2164.85 1293.54 2164.85C1274.9 2164.85 1255.06 2164.48 1239.44 2153.28C1212.62 2134.04 1209.82 2092.8 1209.83 2057.59C1209.84 1976.46 1209.85 1895.33 1209.86 1814.2C1209.87 1783.41 1212.55 1747.06 1236.47 1731.04C1249.26 1722.47 1265.1 1722.22 1280.08 1722.22C1530.31 1722.24 1780.55 1722.25 2030.79 1722.26C2057.38 1722.27 2088.96 1725.25 2102.24 1750.58C2108.81 1763.12 2109.04 1778.34 2109.1 1792.81M2023.25 1930.4C2015.59 1910.89 1991.97 1907.96 1972.65 1907.95C1766.13 1907.85 1559.61 1907.75 1353.1 1907.65C1329.37 1907.64 1298.61 1913.76 1294.82 1939.52C1292.49 1955.32 1303.3 1970.59 1316.51 1977.31C1329.73 1984.02 1344.82 1984.15 1359.37 1984.15C1558.52 1984.18 1757.67 1984.21 1956.81 1984.24C1973.26 1984.24 1990.47 1984.04 2004.94 1975.46C2019.42 1966.88 2029.77 1946.99 2023.25 1930.4M2022.51 1811.63C2014.75 1792.91 1991.99 1790.21 1973.28 1790.21C1765.36 1790.18 1557.44 1790.14 1349.53 1790.11C1328.2 1790.1 1301.25 1794.49 1295.52 1817.07C1291.44 1833.1 1301.95 1850.09 1315.5 1857.49C1329.05 1864.9 1344.81 1865.06 1359.94 1865.07C1558.93 1865.18 1757.92 1865.3 1956.91 1865.41C1973.28 1865.42 1990.43 1865.22 2004.79 1856.61C2019.16 1848 2029.29 1828 2022.51 1811.63M1294.78 2039.84C1287.74 2054.9 1296.89 2074.2 1310.33 2082.48C1323.77 2090.77 1339.95 2090.98 1355.36 2090.97C1559.16 2090.91 1762.96 2090.84 1966.76 2090.77C1980.87 2090.77 1995.57 2090.62 2008.18 2083.67C2020.8 2076.73 2030.51 2060.76 2026.54 2045.88C2021.03 2025.25 1996.41 2021.35 1976.87 2021.36C1764.13 2021.44 1551.39 2021.51 1338.66 2021.59C1322.16 2021.6 1302.33 2023.71 1294.78 2039.84Z" fill="#591e4a" fill-rule="evenodd" opacity="1" stroke="none"/>
<path d="M2213.12 1491.43C2215.75 1525.15 2216.62 1559.04 2215.7 1592.88C2215.31 1607.48 2213.93 1623.67 2204.12 1633.53C2194.75 1642.94 2180.78 1643.46 2168.09 1643.46C1824.11 1643.44 1480.13 1643.43 1136.15 1643.41C1123.52 1643.41 1109.23 1642.63 1100.92 1632.16C1094.92 1624.6 1093.73 1613.9 1093.02 1603.9C1090.39 1567.02 1090.58 1529.89 1093.6 1493.04C1094.92 1476.89 1097.09 1459.93 1106.09 1447.09C1121.18 1425.56 1149.33 1423.02 1174.04 1422.36C1493.48 1413.79 1813.1 1413.54 2132.54 1421.61C2158.04 1422.25 2187.39 1425.09 2202.13 1447.96C2210.14 1460.38 2211.93 1476.26 2213.12 1491.43Z" fill="#b5203d" fill-rule="evenodd" opacity="1" stroke="none"/>
<path d="M1885.54 469.387C1889 460.049 1893.11 449.923 1901.36 445.513C1908.67 441.603 1917.33 443.26 1925.28 445.16C2102.57 487.567 2260.02 611.808 2364.65 774.784C2469.28 937.76 2522.61 1137.2 2528.83 1336.56C2529.17 1347.54 2528.67 1360.25 2520.76 1366.96C2515.18 1371.7 2507.55 1371.9 2500.5 1371.89C2458.42 1371.83 2416.33 1371.77 2374.25 1371.7C2354.85 1371.68 2329.19 1365.65 2327.96 1344.36C2318.96 1188.96 2279.23 1033.51 2198.98 905.201C2118.74 776.896 1995.7 677.84 1856.43 649.531C1832.16 644.6 1835.15 605.344 1844.46 580.224C1858.15 543.278 1871.84 506.333 1885.54 469.387Z" fill="#b5203d" fill-rule="evenodd" opacity="1" stroke="none"/>
<path d="M1102.29 1375.08C1088.43 1374.73 1070.08 1369.76 1069.9 1354.52C1067.17 1129.27 1181.43 906.727 1358.2 792.803C1534.98 678.88 1767.36 677.961 1944.92 790.383C2122.49 902.804 2238.39 1124.17 2237.73 1349.44C2237.67 1369.17 2213.86 1375.7 2195.91 1376.11C1831.42 1384.42 1466.77 1384.07 1102.29 1375.08M1241.74 1238.18C1516.16 1238.18 1790.59 1238.17 2065.02 1238.17C2072.01 1238.17 2080.21 1237.48 2083.99 1231.02C2087.18 1225.57 2085.7 1218.43 2084.02 1212.22C2029.07 1010.31 1845.28 859.892 1653.58 859.933C1461.89 859.975 1278.15 1010.48 1223.28 1212.41C1221.56 1218.73 1220.09 1226.07 1223.47 1231.51C1227.25 1237.58 1235.04 1238.18 1241.74 1238.18Z" fill="#b5203d" fill-rule="evenodd" opacity="1" stroke="none"/>
<path d="M1402.83 446.137C1414.2 451.169 1419.99 464.799 1424.72 477.236C1436.52 508.287 1448.33 539.337 1460.13 570.388C1471.22 599.54 1474.95 645.335 1446.69 651.112C1308.39 679.391 1186.7 778.801 1107.7 906.763C1028.7 1034.72 989.951 1189.15 980.458 1343.45C979.112 1365.34 952.746 1371.5 932.791 1371.53C891.755 1371.59 850.72 1371.65 809.684 1371.71C801.576 1371.72 792.757 1371.47 786.464 1365.85C778.021 1358.31 777.619 1344.53 778.087 1332.58C785.839 1134.99 838.757 937.603 942.057 775.692C1045.36 613.78 1200.69 489.571 1376.27 446.503C1385.05 444.349 1394.48 442.445 1402.83 446.137Z" fill="#b5203d" fill-rule="evenodd" opacity="1" stroke="none"/>
<path d="M800.209 2118.06C791.408 2118.1 781.664 2117.75 775.27 2111.1C768.445 2104 767.983 2092.43 767.982 2082.1C767.966 1932.58 767.95 1783.06 767.934 1633.55C767.932 1616.25 769.008 1596.4 781.447 1585.82C790.872 1577.79 803.861 1577.86 815.774 1578.28C851.026 1579.54 886.278 1580.79 921.531 1582.05C933.018 1582.45 945.721 1583.42 953.768 1592.44C961.64 1601.27 962.435 1614.88 962.745 1627.24C966.587 1780.08 967.306 1933.02 964.9 2085.9C964.521 2110.03 935.256 2117.48 913.302 2117.58C875.604 2117.74 837.907 2117.9 800.209 2118.06Z" fill="#b5203d" fill-rule="evenodd" opacity="1" stroke="none"/>
<path d="M2288.05 1506.82C2289.19 1483.07 2290.34 1459.31 2291.48 1435.55C2292.13 1422.16 2293.96 1406.52 2304.54 1399.84C2310.07 1396.33 2316.8 1396.24 2323.18 1396.23C2393.05 1396.19 2462.91 1396.14 2532.77 1396.09C2545.65 1396.08 2560.94 1397.52 2567.39 1409.77C2570.6 1415.89 2570.7 1423.33 2570.71 1430.39C2570.74 1451.98 2570.78 1473.57 2570.81 1495.16C2570.84 1513.23 2569.22 1534.65 2555.05 1543.82C2548.22 1548.24 2539.91 1548.61 2531.99 1548.87C2462.87 1551.14 2393.76 1553.4 2324.64 1555.66C2316.28 1555.94 2307.34 1556.04 2300.29 1551.09C2287.87 1542.36 2287.27 1523.01 2288.05 1506.82Z" fill="#b5203d" fill-rule="evenodd" opacity="1" stroke="none"/>
<path d="M2374.33 1582.9C2410.65 1581.32 2446.96 1579.74 2483.28 1578.16C2502.22 1577.33 2525.13 1578.82 2534.29 1597.06C2538.45 1605.33 2538.58 1615.23 2538.61 1624.68C2539.12 1780.94 2539.63 1937.2 2540.14 2093.45C2540.2 2112.15 2517.38 2118.03 2500.38 2117.99C2464.92 2117.89 2429.47 2117.8 2394.02 2117.7C2376.47 2117.65 2356.02 2116 2346.2 2100.02C2340.1 2090.09 2340 2077.29 2340.11 2065.31C2341.42 1924.52 2342.72 1783.72 2344.03 1642.92C2344.27 1617.52 2351.25 1583.91 2374.33 1582.9Z" fill="#b5203d" fill-rule="evenodd" opacity="1" stroke="none"/>
<path d="M1015.68 1434.43C1016.99 1457.74 1018.29 1481.06 1019.6 1504.38C1020.55 1521.32 1020.05 1541.61 1007.07 1550.81C999.695 1556.03 990.315 1555.92 981.545 1555.63C912.648 1553.37 843.751 1551.11 774.854 1548.86C766.963 1548.6 758.689 1548.22 751.889 1543.81C737.842 1534.7 736.248 1513.45 736.276 1495.52C736.311 1473.72 736.345 1451.91 736.38 1430.11C736.391 1423.03 736.493 1415.56 739.759 1409.46C746.168 1397.48 761.153 1396.1 773.796 1396.11C843.964 1396.16 914.132 1396.22 984.299 1396.27C990.716 1396.28 997.483 1396.38 1003.01 1399.97C1013.14 1406.54 1014.96 1421.52 1015.68 1434.43Z" fill="#b5203d" fill-rule="evenodd" opacity="1" stroke="none"/>
<path d="M1783.69 642.799C1772.85 653.51 1756.03 649.934 1741.97 645.711C1730.59 642.29 1717.44 637.047 1714.2 624.569C1712.87 619.45 1713.55 613.994 1714.24 608.726C1723.35 539.212 1732.46 469.698 1741.57 400.184C1743.34 386.661 1746.59 370.899 1758 365.485C1765.03 362.149 1773.12 363.946 1780.53 366.062C1806 373.335 1830.73 383.793 1854.07 397.17C1859.43 400.244 1865 403.771 1867.89 409.61C1872.5 418.909 1868.77 430.336 1865.01 440.082C1841.19 501.727 1817.36 563.371 1793.54 625.015C1791.05 631.458 1788.42 638.118 1783.69 642.799Z" fill="#b5203d" fill-rule="evenodd" opacity="1" stroke="none"/>
<path d="M1687.26 633.809C1683.84 638.188 1678.23 639.413 1673.06 640.376C1661.47 642.532 1649.5 644.678 1638.07 641.652C1626.64 638.627 1615.8 629.039 1614.36 616.214C1605.99 541.589 1597.63 466.965 1589.26 392.34C1587.96 380.71 1587.37 366.946 1595.55 359.436C1599.44 355.864 1604.6 354.532 1609.59 353.498C1639.25 347.342 1670.07 347.95 1699.52 355.273C1704.95 356.623 1710.63 358.383 1714.48 362.802C1720.79 370.041 1720.02 381.49 1718.83 391.431C1709.67 467.735 1700.52 544.038 1691.37 620.342C1690.79 625.106 1690.11 630.162 1687.26 633.809Z" fill="#b5203d" fill-rule="evenodd" opacity="1" stroke="none"/>
<path d="M1569.14 644.74C1550.86 651.19 1525.25 654.301 1517.71 634.885C1493.56 572.632 1469.41 510.378 1445.25 448.124C1440 434.578 1434.9 418.298 1442.16 405.924C1446.21 399.021 1453.27 395.102 1460.08 391.704C1481.03 381.239 1502.76 372.667 1524.99 366.102C1531.47 364.187 1538.35 362.442 1544.82 364.429C1559.41 368.912 1564.09 388.683 1566.28 405.163C1575.24 472.628 1584.21 540.094 1593.17 607.559C1594.04 614.11 1594.87 621.037 1592.58 627.159C1588.86 637.107 1578.45 641.453 1569.14 644.74Z" fill="#b5203d" fill-rule="evenodd" opacity="1" stroke="none"/>
<path d="M2102.71 1755.66C2103.06 1848.7 2103.42 1941.75 2103.78 2034.79C2103.86 2056.7 2103.5 2080.23 2091.91 2098.05C2074.29 2125.13 2039.2 2127.69 2008.92 2127.69C1768.33 2127.69 1527.74 2127.7 1287.15 2127.7C1268.5 2127.7 1248.66 2127.33 1233.05 2116.13C1206.23 2096.89 1203.43 2055.65 1203.43 2020.44C1203.45 1939.31 1203.46 1858.18 1203.47 1777.05C1203.47 1746.25 1206.15 1709.91 1230.07 1693.89C1242.86 1685.32 1258.7 1685.07 1273.68 1685.07C1523.92 1685.08 1774.16 1685.1 2024.4 1685.11C2050.99 1685.11 2082.57 1688.1 2095.85 1713.43C2102.42 1725.97 2102.65 1741.19 2102.71 1755.66M2016.86 1893.24C2009.2 1873.74 1985.58 1870.81 1966.26 1870.8C1759.74 1870.7 1553.22 1870.6 1346.7 1870.5C1322.98 1870.49 1292.22 1876.61 1288.43 1902.36C1286.1 1918.16 1296.91 1933.44 1310.12 1940.15C1323.34 1946.87 1338.42 1946.99 1352.98 1947C1552.13 1947.03 1751.28 1947.05 1950.42 1947.08C1966.86 1947.09 1984.08 1946.88 1998.55 1938.31C2013.02 1929.73 2023.37 1909.84 2016.86 1893.24M2016.12 1774.47C2008.35 1755.75 1985.6 1753.06 1966.88 1753.06C1758.97 1753.02 1551.05 1752.99 1343.13 1752.96C1321.8 1752.95 1294.86 1757.34 1289.12 1779.92C1285.05 1795.94 1295.56 1812.94 1309.11 1820.34C1322.66 1827.74 1338.42 1827.91 1353.55 1827.91C1552.54 1828.03 1751.53 1828.15 1950.52 1828.26C1966.88 1828.27 1984.03 1828.07 1998.4 1819.46C2012.77 1810.85 2022.9 1790.84 2016.12 1774.47M1288.39 2002.68C1281.35 2017.75 1290.5 2037.04 1303.94 2045.33C1317.37 2053.62 1333.56 2053.83 1348.97 2053.82C1552.76 2053.75 1756.56 2053.69 1960.36 2053.62C1974.47 2053.62 1989.17 2053.47 2001.79 2046.52C2014.41 2039.57 2024.12 2023.61 2020.15 2008.72C2014.64 1988.1 1990.02 1984.2 1970.47 1984.21C1757.74 1984.28 1545 1984.36 1332.27 1984.44C1315.77 1984.44 1295.94 1986.55 1288.39 2002.68Z" fill="#b5203d" fill-rule="evenodd" opacity="1" stroke="none"/>
<path d="M2196.72 1452.98C2199.36 1486.7 2200.22 1520.59 2199.3 1554.42C2198.91 1569.02 2197.53 1585.22 2187.72 1595.07C2178.36 1604.49 2164.38 1605.01 2151.69 1605.01C1807.71 1604.99 1463.73 1604.97 1119.75 1604.96C1107.12 1604.96 1092.83 1604.17 1084.52 1593.71C1078.52 1586.15 1077.33 1575.45 1076.62 1565.44C1073.99 1528.56 1074.18 1491.43 1077.2 1454.58C1078.52 1438.43 1080.69 1421.47 1089.69 1408.63C1104.78 1387.1 1132.93 1384.57 1157.64 1383.91C1477.08 1375.34 1796.7 1375.09 2116.15 1383.15C2141.64 1383.8 2170.99 1386.63 2185.73 1409.51C2193.74 1421.93 2195.53 1437.81 2196.72 1452.98Z" fill="#e4222d" fill-rule="evenodd" opacity="1" stroke="none"/>
<path d="M1869.14 430.932C1872.6 421.595 1876.71 411.468 1884.96 407.058C1892.27 403.148 1900.93 404.805 1908.88 406.706C2086.18 449.112 2243.63 573.353 2348.25 736.329C2452.88 899.305 2506.22 1098.75 2512.43 1298.11C2512.77 1309.09 2512.27 1321.79 2504.37 1328.51C2498.78 1333.25 2491.15 1333.44 2484.1 1333.43C2442.02 1333.37 2399.93 1333.31 2357.85 1333.25C2338.45 1333.22 2312.79 1327.19 2311.56 1305.9C2302.56 1150.51 2262.83 995.051 2182.58 866.746C2102.34 738.441 1979.3 639.385 1840.03 611.076C1815.77 606.145 1818.75 566.889 1828.06 541.769C1841.75 504.824 1855.45 467.878 1869.14 430.932Z" fill="#e4222d" fill-rule="evenodd" opacity="1" stroke="none"/>
<path d="M1085.89 1336.62C1072.03 1336.28 1053.69 1331.31 1053.5 1316.07C1050.77 1090.81 1165.03 868.272 1341.8 754.348C1518.58 640.425 1750.96 639.506 1928.52 751.928C2106.09 864.35 2221.99 1085.71 2221.33 1310.98C2221.27 1330.72 2197.46 1337.24 2179.51 1337.65C1815.02 1345.96 1450.37 1345.62 1085.89 1336.62M1225.34 1199.73C1499.76 1199.72 1774.19 1199.72 2048.62 1199.72C2055.61 1199.72 2063.82 1199.03 2067.59 1192.56C2070.78 1187.12 2069.31 1179.97 2067.62 1173.77C2012.67 971.86 1828.88 821.437 1637.19 821.478C1445.49 821.52 1261.75 972.022 1206.88 1173.95C1205.16 1180.27 1203.69 1187.61 1207.07 1193.05C1210.85 1199.13 1218.65 1199.73 1225.34 1199.73Z" fill="#e4222d" fill-rule="evenodd" opacity="1" stroke="none"/>
<path d="M1386.43 407.683C1397.8 412.714 1403.59 426.344 1408.32 438.781C1420.12 469.832 1431.93 500.883 1443.73 531.933C1454.82 561.085 1458.55 606.88 1430.29 612.658C1292 640.936 1170.3 740.346 1091.3 868.308C1012.3 996.27 973.553 1150.7 964.059 1305C962.713 1326.89 936.347 1333.05 916.392 1333.08C875.356 1333.13 834.321 1333.19 793.285 1333.25C785.177 1333.26 776.359 1333.01 770.065 1327.39C761.622 1319.85 761.22 1306.07 761.688 1294.12C769.44 1096.54 822.358 899.148 925.658 737.237C1028.96 575.326 1184.29 451.116 1359.87 408.049C1368.65 405.895 1378.08 403.99 1386.43 407.683Z" fill="#e4222d" fill-rule="evenodd" opacity="1" stroke="none"/>
<path d="M783.81 2079.61C775.009 2079.64 765.265 2079.29 758.871 2072.64C752.046 2065.55 751.584 2053.97 751.583 2043.64C751.567 1894.13 751.551 1744.61 751.535 1595.09C751.533 1577.8 752.609 1557.95 765.048 1547.36C774.473 1539.34 787.462 1539.4 799.375 1539.83C834.627 1541.08 869.879 1542.34 905.132 1543.59C916.619 1544 929.322 1544.97 937.369 1553.99C945.242 1562.81 946.036 1576.43 946.346 1588.78C950.188 1741.63 950.907 1894.56 948.501 2047.44C948.122 2071.58 918.857 2079.03 896.903 2079.12C859.205 2079.28 821.508 2079.44 783.81 2079.61Z" fill="#e4222d" fill-rule="evenodd" opacity="1" stroke="none"/>
<path d="M2271.65 1468.37C2272.79 1444.61 2273.94 1420.85 2275.08 1397.1C2275.73 1383.7 2277.56 1368.07 2288.14 1361.38C2293.67 1357.88 2300.4 1357.78 2306.78 1357.78C2376.65 1357.73 2446.51 1357.68 2516.37 1357.64C2529.25 1357.63 2544.54 1359.06 2550.99 1371.32C2554.21 1377.44 2554.3 1384.87 2554.31 1391.94C2554.35 1413.53 2554.38 1435.11 2554.41 1456.7C2554.44 1474.77 2552.82 1496.2 2538.66 1505.36C2531.82 1509.78 2523.51 1510.16 2515.59 1510.42C2446.47 1512.68 2377.36 1514.94 2308.24 1517.21C2299.88 1517.48 2290.94 1517.59 2283.9 1512.64C2271.47 1503.9 2270.87 1484.56 2271.65 1468.37Z" fill="#e4222d" fill-rule="evenodd" opacity="1" stroke="none"/>
<path d="M2357.93 1544.45C2394.25 1542.87 2430.56 1541.28 2466.88 1539.7C2485.82 1538.88 2508.73 1540.36 2517.89 1558.6C2522.05 1566.87 2522.18 1576.78 2522.21 1586.22C2522.72 1742.48 2523.23 1898.74 2523.74 2055C2523.8 2073.7 2500.98 2079.58 2483.98 2079.53C2448.53 2079.44 2413.07 2079.34 2377.62 2079.24C2360.07 2079.2 2339.63 2077.54 2329.8 2061.56C2323.7 2051.64 2323.6 2038.83 2323.71 2026.86C2325.02 1886.06 2326.32 1745.26 2327.63 1604.46C2327.87 1579.07 2334.85 1545.45 2357.93 1544.45Z" fill="#e4222d" fill-rule="evenodd" opacity="1" stroke="none"/>
<path d="M999.281 1395.97C1000.59 1419.29 1001.89 1442.61 1003.2 1465.92C1004.15 1482.87 1003.65 1503.16 990.672 1512.35C983.296 1517.58 973.916 1517.47 965.146 1517.18C896.249 1514.92 827.352 1512.66 758.455 1510.4C750.564 1510.14 742.29 1509.77 735.49 1505.36C721.443 1496.25 719.849 1474.99 719.877 1457.06C719.912 1435.26 719.946 1413.46 719.981 1391.66C719.992 1384.57 720.094 1377.11 723.36 1371C729.769 1359.02 744.754 1357.64 757.397 1357.65C827.565 1357.71 897.733 1357.76 967.9 1357.82C974.317 1357.82 981.084 1357.93 986.61 1361.51C996.737 1368.08 998.558 1383.07 999.281 1395.97Z" fill="#e4222d" fill-rule="evenodd" opacity="1" stroke="none"/>
<path d="M1767.29 604.344C1756.46 615.055 1739.63 611.479 1725.57 607.256C1714.19 603.836 1701.04 598.592 1697.8 586.114C1696.47 580.996 1697.15 575.54 1697.84 570.271C1706.95 500.757 1716.06 431.243 1725.17 361.729C1726.94 348.207 1730.19 332.444 1741.6 327.03C1748.63 323.694 1756.72 325.491 1764.13 327.607C1789.61 334.88 1814.33 345.338 1837.67 358.715C1843.03 361.789 1848.6 365.316 1851.49 371.155C1856.1 380.454 1852.38 391.882 1848.61 401.628C1824.79 463.272 1800.96 524.916 1777.14 586.561C1774.65 593.003 1772.02 599.663 1767.29 604.344Z" fill="#e4222d" fill-rule="evenodd" opacity="1" stroke="none"/>
<path d="M1670.86 595.354C1667.45 599.734 1661.83 600.959 1656.66 601.921C1645.07 604.077 1633.1 606.223 1621.67 603.198C1610.24 600.172 1599.4 590.585 1597.96 577.76C1589.59 503.135 1581.23 428.51 1572.86 353.885C1571.56 342.255 1570.97 328.491 1579.15 320.982C1583.04 317.409 1588.2 316.077 1593.19 315.043C1622.86 308.887 1653.67 309.495 1683.12 316.818C1688.55 318.168 1694.23 319.928 1698.08 324.347C1704.4 331.586 1703.62 343.035 1702.43 352.976C1693.27 429.28 1684.12 505.583 1674.97 581.887C1674.4 586.651 1673.71 591.707 1670.86 595.354Z" fill="#e4222d" fill-rule="evenodd" opacity="1" stroke="none"/>
<path d="M1552.74 606.285C1534.46 612.735 1508.85 615.847 1501.31 596.431C1477.16 534.177 1453.01 471.923 1428.85 409.669C1423.6 396.123 1418.5 379.843 1425.76 367.469C1429.81 360.566 1436.88 356.647 1443.68 353.249C1464.63 342.785 1486.36 334.213 1508.59 327.647C1515.07 325.732 1521.95 323.988 1528.42 325.974C1543.01 330.457 1547.69 350.228 1549.88 366.708C1558.84 434.173 1567.81 501.639 1576.77 569.104C1577.64 575.656 1578.47 582.582 1576.18 588.705C1572.46 598.653 1562.06 602.998 1552.74 606.285Z" fill="#e4222d" fill-rule="evenodd" opacity="1" stroke="none"/>
<path d="M2086.31 1717.2C2086.66 1810.25 2087.02 1903.29 2087.38 1996.33C2087.46 2018.24 2087.1 2041.77 2075.51 2059.59C2057.89 2086.67 2022.81 2089.24 1992.52 2089.24C1751.93 2089.24 1511.34 2089.24 1270.75 2089.24C1252.1 2089.25 1232.27 2088.88 1216.65 2077.67C1189.83 2058.43 1187.03 2017.2 1187.03 1981.99C1187.05 1900.86 1187.06 1819.73 1187.07 1738.59C1187.08 1707.8 1189.75 1671.46 1213.67 1655.43C1226.47 1646.86 1242.31 1646.61 1257.28 1646.61C1507.52 1646.63 1757.76 1646.64 2008 1646.66C2034.59 1646.66 2066.17 1649.65 2079.45 1674.98C2086.02 1687.51 2086.25 1702.73 2086.31 1717.2M2000.46 1854.79C1992.8 1835.28 1969.18 1832.36 1949.86 1832.35C1743.34 1832.25 1536.82 1832.14 1330.31 1832.04C1306.58 1832.03 1275.82 1838.16 1272.03 1863.91C1269.7 1879.71 1280.51 1894.99 1293.72 1901.7C1306.94 1908.41 1322.03 1908.54 1336.58 1908.54C1535.73 1908.57 1734.88 1908.6 1934.02 1908.63C1950.46 1908.63 1967.68 1908.43 1982.15 1899.85C1996.62 1891.27 2006.97 1871.38 2000.46 1854.79M1999.72 1736.02C1991.96 1717.3 1969.2 1714.6 1950.49 1714.6C1742.57 1714.57 1534.65 1714.53 1326.73 1714.5C1305.41 1714.5 1278.46 1718.88 1272.72 1741.46C1268.65 1757.49 1279.16 1774.48 1292.71 1781.89C1306.26 1789.29 1322.02 1789.45 1337.15 1789.46C1536.14 1789.58 1735.13 1789.69 1934.12 1789.81C1950.48 1789.82 1967.64 1789.62 1982 1781C1996.37 1772.39 2006.5 1752.39 1999.72 1736.02M1271.99 1964.23C1264.95 1979.29 1274.1 1998.59 1287.54 2006.88C1300.97 2015.16 1317.16 2015.37 1332.57 2015.37C1536.37 2015.3 1740.16 2015.23 1943.96 2015.17C1958.07 2015.16 1972.77 2015.01 1985.39 2008.06C1998.01 2001.12 2007.72 1985.15 2003.75 1970.27C1998.24 1949.65 1973.62 1945.74 1954.07 1945.75C1741.34 1945.83 1528.6 1945.9 1315.87 1945.98C1299.37 1945.99 1279.54 1948.1 1271.99 1964.23Z" fill="#e4222d" fill-rule="evenodd" opacity="1" stroke="none"/>
<path d="M2182.91 1423.1C2185.55 1456.82 2186.42 1490.71 2185.5 1524.54C2185.1 1539.14 2183.73 1555.34 2173.92 1565.19C2164.55 1574.6 2150.57 1575.13 2137.89 1575.12C1793.91 1575.11 1449.93 1575.09 1105.95 1575.08C1093.32 1575.08 1079.03 1574.29 1070.72 1563.83C1064.72 1556.27 1063.53 1545.57 1062.82 1535.56C1060.19 1498.68 1060.38 1461.55 1063.4 1424.7C1064.72 1408.55 1066.89 1391.59 1075.89 1378.75C1090.98 1357.22 1119.13 1354.69 1143.84 1354.02C1463.28 1345.46 1782.9 1345.21 2102.34 1353.27C2127.84 1353.92 2157.18 1356.75 2171.93 1379.63C2179.94 1392.05 2181.73 1407.93 2182.91 1423.1Z" fill="#f6612b" fill-rule="evenodd" opacity="1" stroke="none"/>
<path d="M1855.34 401.051C1858.8 391.714 1862.91 381.587 1871.15 377.178C1878.47 373.268 1887.13 374.924 1895.08 376.825C2072.37 419.231 2229.82 543.472 2334.45 706.448C2439.07 869.425 2492.41 1068.87 2498.62 1268.23C2498.97 1279.21 2498.47 1291.91 2490.56 1298.63C2484.98 1303.37 2477.35 1303.56 2470.3 1303.55C2428.22 1303.49 2386.13 1303.43 2344.05 1303.37C2324.64 1303.34 2298.99 1297.31 2297.76 1276.02C2288.76 1120.63 2249.03 965.17 2168.78 836.865C2088.53 708.561 1965.5 609.504 1826.22 581.196C1801.96 576.264 1804.95 537.008 1814.26 511.889C1827.95 474.943 1841.64 437.997 1855.34 401.051Z" fill="#f6612b" fill-rule="evenodd" opacity="1" stroke="none"/>
<path d="M1072.09 1306.74C1058.23 1306.4 1039.88 1301.43 1039.7 1286.18C1036.97 1060.93 1151.23 838.391 1328 724.468C1504.77 610.544 1737.16 609.625 1914.72 722.047C2092.29 834.469 2208.18 1055.83 2207.53 1281.1C2207.47 1300.84 2183.66 1307.36 2165.71 1307.77C1801.22 1316.08 1436.56 1315.74 1072.09 1306.74M1211.53 1169.85C1485.96 1169.84 1760.39 1169.84 2034.82 1169.84C2041.81 1169.83 2050.01 1169.15 2053.79 1162.68C2056.98 1157.23 2055.5 1150.09 2053.81 1143.89C1998.87 941.979 1815.08 791.556 1623.38 791.598C1431.69 791.639 1247.95 942.141 1193.08 1144.07C1191.36 1150.39 1189.88 1157.73 1193.27 1163.17C1197.05 1169.24 1204.84 1169.85 1211.53 1169.85Z" fill="#f6612b" fill-rule="evenodd" opacity="1" stroke="none"/>
<path d="M1372.63 377.802C1384 382.834 1389.79 396.463 1394.52 408.901C1406.32 439.951 1418.13 471.002 1429.93 502.053C1441.02 531.204 1444.75 577 1416.49 582.777C1278.19 611.056 1156.49 710.465 1077.49 838.427C998.495 966.389 959.75 1120.82 950.256 1275.12C948.91 1297.01 922.544 1303.17 902.589 1303.2C861.553 1303.25 820.518 1303.31 779.482 1303.37C771.374 1303.38 762.556 1303.13 756.262 1297.51C747.819 1289.97 747.417 1276.19 747.885 1264.24C755.637 1066.66 808.555 869.267 911.855 707.356C1015.15 545.445 1170.49 421.235 1346.06 378.168C1354.85 376.014 1364.28 374.11 1372.63 377.802Z" fill="#f6612b" fill-rule="evenodd" opacity="1" stroke="none"/>
<path d="M770.007 2049.73C761.206 2049.76 751.462 2049.41 745.069 2042.76C738.243 2035.66 737.781 2024.09 737.78 2013.76C737.764 1864.25 737.748 1714.73 737.732 1565.21C737.73 1547.92 738.806 1528.07 751.245 1517.48C760.67 1509.46 773.659 1509.52 785.572 1509.95C820.825 1511.2 856.077 1512.46 891.329 1513.71C902.816 1514.12 915.519 1515.09 923.567 1524.11C931.439 1532.93 932.233 1546.55 932.544 1558.9C936.385 1711.75 937.104 1864.68 934.699 2017.56C934.319 2041.69 905.054 2049.15 883.1 2049.24C845.402 2049.4 807.705 2049.56 770.007 2049.73Z" fill="#f6612b" fill-rule="evenodd" opacity="1" stroke="none"/>
<path d="M2257.84 1438.49C2258.99 1414.73 2260.14 1390.97 2261.28 1367.22C2261.93 1353.82 2263.76 1338.19 2274.33 1331.5C2279.87 1328 2286.59 1327.9 2292.98 1327.9C2362.84 1327.85 2432.71 1327.8 2502.57 1327.76C2515.45 1327.75 2530.74 1329.18 2537.19 1341.44C2540.4 1347.55 2540.5 1354.99 2540.51 1362.06C2540.54 1383.65 2540.58 1405.23 2540.61 1426.82C2540.63 1444.89 2539.02 1466.32 2524.85 1475.48C2518.02 1479.9 2509.71 1480.28 2501.78 1480.54C2432.67 1482.8 2363.56 1485.06 2294.44 1487.33C2286.08 1487.6 2277.14 1487.71 2270.09 1482.76C2257.67 1474.02 2257.06 1454.68 2257.84 1438.49Z" fill="#f6612b" fill-rule="evenodd" opacity="1" stroke="none"/>
<path d="M2344.13 1514.57C2380.45 1512.98 2416.76 1511.4 2453.08 1509.82C2472.02 1509 2494.92 1510.48 2504.09 1528.72C2508.25 1536.99 2508.38 1546.89 2508.41 1556.34C2508.92 1712.6 2509.43 1868.86 2509.94 2025.12C2510 2043.82 2487.18 2049.7 2470.17 2049.65C2434.72 2049.56 2399.27 2049.46 2363.82 2049.36C2346.27 2049.32 2325.82 2047.66 2316 2031.68C2309.9 2021.76 2309.79 2008.95 2309.9 1996.98C2311.21 1856.18 2312.52 1715.38 2313.83 1574.58C2314.07 1549.19 2321.05 1515.57 2344.13 1514.57Z" fill="#f6612b" fill-rule="evenodd" opacity="1" stroke="none"/>
<path d="M985.478 1366.09C986.784 1389.41 988.09 1412.72 989.396 1436.04C990.345 1452.99 989.849 1473.28 976.869 1482.47C969.493 1487.7 960.113 1487.59 951.343 1487.3C882.446 1485.04 813.549 1482.78 744.652 1480.52C736.761 1480.26 728.487 1479.89 721.687 1475.48C707.64 1466.36 706.046 1445.11 706.074 1427.18C706.109 1405.38 706.144 1383.58 706.178 1361.78C706.19 1354.69 706.291 1347.23 709.557 1341.12C715.966 1329.14 730.951 1327.76 743.594 1327.77C813.762 1327.83 883.93 1327.88 954.097 1327.94C960.514 1327.94 967.281 1328.04 972.807 1331.63C982.934 1338.2 984.755 1353.19 985.478 1366.09Z" fill="#f6612b" fill-rule="evenodd" opacity="1" stroke="none"/>
<path d="M1753.49 574.463C1742.65 585.174 1725.82 581.598 1711.77 577.376C1700.38 573.955 1687.24 568.711 1684 556.234C1682.67 551.115 1683.35 545.659 1684.04 540.391C1693.15 470.877 1702.26 401.363 1711.37 331.849C1713.14 318.326 1716.39 302.564 1727.8 297.149C1734.83 293.813 1742.92 295.611 1750.33 297.727C1775.8 304.999 1800.53 315.458 1823.86 328.835C1829.23 331.908 1834.8 335.436 1837.69 341.275C1842.3 350.574 1838.57 362.001 1834.81 371.747C1810.98 433.391 1787.16 495.036 1763.34 556.68C1760.85 563.122 1758.22 569.783 1753.49 574.463Z" fill="#f6612b" fill-rule="evenodd" opacity="1" stroke="none"/>
<path d="M1657.06 565.474C1653.64 569.853 1648.03 571.078 1642.85 572.041C1631.26 574.197 1619.29 576.342 1607.87 573.317C1596.44 570.292 1585.6 560.704 1584.16 547.879C1575.79 473.254 1567.42 398.629 1559.06 324.004C1557.75 312.375 1557.17 298.61 1565.35 291.101C1569.24 287.529 1574.4 286.197 1579.38 285.163C1609.05 279.006 1639.87 279.614 1669.32 286.937C1674.75 288.288 1680.43 290.047 1684.28 294.466C1690.59 301.706 1689.82 313.154 1688.62 323.096C1679.47 399.399 1670.32 475.703 1661.16 552.006C1660.59 556.77 1659.91 561.827 1657.06 565.474Z" fill="#f6612b" fill-rule="evenodd" opacity="1" stroke="none"/>
<path d="M1538.94 576.405C1520.65 582.854 1495.04 585.966 1487.51 566.55C1463.36 504.296 1439.21 442.042 1415.05 379.789C1409.8 366.243 1404.69 349.962 1411.96 337.589C1416.01 330.685 1423.07 326.767 1429.88 323.368C1450.83 312.904 1472.56 304.332 1494.78 297.767C1501.27 295.851 1508.15 294.107 1514.61 296.094C1529.2 300.576 1533.89 320.348 1536.08 336.827C1545.04 404.293 1554 471.758 1562.97 539.224C1563.84 545.775 1564.67 552.701 1562.38 558.824C1558.66 568.772 1548.25 573.118 1538.94 576.405Z" fill="#f6612b" fill-rule="evenodd" opacity="1" stroke="none"/>
<path d="M2072.5 1687.32C2072.86 1780.37 2073.22 1873.41 2073.58 1966.45C2073.66 1988.36 2073.3 2011.89 2061.71 2029.71C2044.09 2056.79 2009 2059.36 1978.72 2059.36C1738.13 2059.36 1497.54 2059.36 1256.95 2059.36C1238.3 2059.36 1218.46 2059 1202.84 2047.79C1176.02 2028.55 1173.23 1987.32 1173.23 1952.11C1173.24 1870.98 1173.26 1789.84 1173.27 1708.71C1173.27 1677.92 1175.95 1641.58 1199.87 1625.55C1212.66 1616.98 1228.5 1616.73 1243.48 1616.73C1493.72 1616.75 1743.96 1616.76 1994.19 1616.78C2020.79 1616.78 2052.37 1619.77 2065.65 1645.09C2072.22 1657.63 2072.45 1672.85 2072.5 1687.32M1986.65 1824.91C1978.99 1805.4 1955.38 1802.48 1936.05 1802.47C1729.54 1802.36 1523.02 1802.26 1316.5 1802.16C1292.77 1802.15 1262.01 1808.27 1258.22 1834.03C1255.9 1849.83 1266.7 1865.11 1279.92 1871.82C1293.13 1878.53 1308.22 1878.66 1322.78 1878.66C1521.93 1878.69 1721.07 1878.72 1920.22 1878.75C1936.66 1878.75 1953.88 1878.55 1968.35 1869.97C1982.82 1861.39 1993.17 1841.5 1986.65 1824.91M1985.91 1706.14C1978.15 1687.42 1955.39 1684.72 1936.68 1684.72C1728.77 1684.69 1520.85 1684.65 1312.93 1684.62C1291.6 1684.62 1264.66 1689 1258.92 1711.58C1254.85 1727.61 1265.36 1744.6 1278.91 1752C1292.46 1759.41 1308.22 1759.57 1323.35 1759.58C1522.34 1759.69 1721.33 1759.81 1920.32 1759.93C1936.68 1759.94 1953.83 1759.73 1968.2 1751.12C1982.56 1742.51 1992.7 1722.51 1985.91 1706.14M1258.19 1934.35C1251.14 1949.41 1260.3 1968.71 1273.73 1977C1287.17 1985.28 1303.36 1985.49 1318.76 1985.49C1522.56 1985.42 1726.36 1985.35 1930.16 1985.29C1944.27 1985.28 1958.97 1985.13 1971.59 1978.18C1984.2 1971.24 1993.92 1955.27 1989.95 1940.39C1984.44 1919.77 1959.82 1915.86 1940.27 1915.87C1727.54 1915.95 1514.8 1916.02 1302.06 1916.1C1285.56 1916.11 1265.73 1918.22 1258.19 1934.35Z" fill="#f6612b" fill-rule="evenodd" opacity="1" stroke="none"/>
<path d="M2155.02 1395.14C2157.66 1428.86 2158.52 1462.75 2157.61 1496.58C2157.21 1511.18 2155.83 1527.38 2146.02 1537.23C2136.66 1546.65 2122.68 1547.17 2109.99 1547.17C1766.01 1547.15 1422.04 1547.14 1078.06 1547.12C1065.42 1547.12 1051.13 1546.33 1042.83 1535.87C1036.82 1528.31 1035.64 1517.61 1034.92 1507.61C1032.29 1470.72 1032.49 1433.59 1035.5 1396.74C1036.82 1380.59 1038.99 1363.63 1048 1350.79C1063.08 1329.26 1091.24 1326.72 1115.95 1326.06C1435.38 1317.49 1755 1317.24 2074.45 1325.31C2099.94 1325.96 2129.29 1328.79 2144.04 1351.66C2152.04 1364.09 2153.83 1379.96 2155.02 1395.14Z" fill="#e1d9cd" fill-rule="evenodd" opacity="1" stroke="none"/>
<path d="M1827.44 373.066C1830.9 363.728 1835.01 353.601 1843.26 349.192C1850.57 345.281 1859.23 346.938 1867.18 348.839C2044.48 391.246 2201.93 515.49 2306.55 678.47C2411.18 841.451 2464.52 1040.9 2470.73 1240.26C2471.07 1251.24 2470.58 1263.95 2462.67 1270.66C2457.09 1275.4 2449.46 1275.6 2442.4 1275.59C2400.32 1275.53 2358.24 1275.47 2316.15 1275.41C2296.75 1275.38 2271.1 1269.35 2269.86 1248.06C2260.86 1092.66 2221.14 937.198 2140.89 808.89C2060.64 680.582 1937.6 581.524 1798.33 553.214C1774.07 548.283 1777.05 509.026 1786.36 483.906C1800.05 446.959 1813.75 410.013 1827.44 373.066Z" fill="#e1d9cd" fill-rule="evenodd" opacity="1" stroke="none"/>
<path d="M1044.19 1278.78C1030.33 1278.44 1011.99 1273.46 1011.8 1258.22C1009.07 1032.96 1123.34 810.416 1300.11 696.49C1476.88 582.564 1709.26 581.645 1886.83 694.069C2064.39 806.494 2180.29 1027.86 2179.63 1253.14C2179.58 1272.87 2155.76 1279.4 2137.82 1279.81C1773.33 1288.12 1408.67 1287.78 1044.19 1278.78M1183.64 1141.88C1458.07 1141.88 1732.5 1141.87 2006.92 1141.87C2013.92 1141.87 2022.12 1141.18 2025.9 1134.72C2029.08 1129.27 2027.61 1122.12 2025.92 1115.92C1970.97 914.006 1787.19 763.58 1595.49 763.622C1403.79 763.663 1220.06 914.169 1165.18 1116.11C1163.47 1122.43 1161.99 1129.76 1165.38 1135.21C1169.16 1141.28 1176.95 1141.88 1183.64 1141.88Z" fill="#e1d9cd" fill-rule="evenodd" opacity="1" stroke="none"/>
<path d="M1344.73 349.816C1356.11 354.848 1361.89 368.478 1366.62 380.915C1378.43 411.967 1390.23 443.018 1402.04 474.069C1413.12 503.222 1416.85 549.018 1388.6 554.796C1250.3 583.075 1128.6 682.487 1049.6 810.452C970.601 938.417 931.855 1092.85 922.362 1247.16C921.015 1269.04 894.65 1275.2 874.695 1275.23C833.659 1275.29 792.624 1275.35 751.588 1275.41C743.48 1275.42 734.661 1275.17 728.368 1269.55C719.925 1262.01 719.522 1248.23 719.991 1236.28C727.743 1038.69 780.661 841.293 883.961 679.378C987.26 517.463 1142.6 393.25 1318.17 350.182C1326.95 348.028 1336.38 346.123 1344.73 349.816Z" fill="#e1d9cd" fill-rule="evenodd" opacity="1" stroke="none"/>
<path d="M742.113 2021.78C733.312 2021.82 723.568 2021.47 717.174 2014.82C710.349 2007.72 709.887 1996.15 709.885 1985.82C709.869 1836.3 709.853 1686.78 709.837 1537.26C709.836 1519.96 710.912 1500.11 723.351 1489.52C732.776 1481.5 745.765 1481.56 757.678 1481.99C792.93 1483.24 828.182 1484.5 863.434 1485.75C874.922 1486.16 887.625 1487.13 895.672 1496.15C903.544 1504.97 904.339 1518.59 904.649 1530.95C908.491 1683.79 909.21 1836.73 906.804 1989.62C906.425 2013.75 877.159 2021.2 855.205 2021.29C817.508 2021.46 779.81 2021.62 742.113 2021.78Z" fill="#e1d9cd" fill-rule="evenodd" opacity="1" stroke="none"/>
<path d="M2229.95 1410.53C2231.1 1386.77 2232.24 1363.01 2233.39 1339.26C2234.03 1325.86 2235.86 1310.23 2246.44 1303.54C2251.98 1300.04 2258.7 1299.94 2265.09 1299.93C2334.95 1299.89 2404.81 1299.84 2474.68 1299.79C2487.55 1299.78 2502.84 1301.22 2509.29 1313.47C2512.51 1319.59 2512.61 1327.03 2512.62 1334.1C2512.65 1355.68 2512.68 1377.27 2512.71 1398.86C2512.74 1416.93 2511.13 1438.36 2496.96 1447.52C2490.12 1451.94 2481.82 1452.32 2473.89 1452.58C2404.78 1454.84 2335.66 1457.1 2266.55 1459.37C2258.18 1459.64 2249.25 1459.75 2242.2 1454.8C2229.77 1446.06 2229.17 1426.72 2229.95 1410.53Z" fill="#e1d9cd" fill-rule="evenodd" opacity="1" stroke="none"/>
<path d="M2316.24 1486.61C2352.55 1485.03 2388.87 1483.45 2425.18 1481.86C2444.12 1481.04 2467.03 1482.53 2476.2 1500.76C2480.35 1509.03 2480.49 1518.94 2480.52 1528.38C2481.03 1684.65 2481.54 1840.91 2482.05 1997.17C2482.11 2015.87 2459.29 2021.75 2442.28 2021.71C2406.83 2021.61 2371.38 2021.51 2335.92 2021.42C2318.38 2021.37 2297.93 2019.72 2288.1 2003.73C2282 1993.81 2281.9 1981.01 2282.01 1969.03C2283.32 1828.23 2284.63 1687.43 2285.94 1546.63C2286.17 1521.23 2293.15 1487.61 2316.24 1486.61Z" fill="#e1d9cd" fill-rule="evenodd" opacity="1" stroke="none"/>
<path d="M957.583 1338.13C958.889 1361.45 960.195 1384.76 961.501 1408.08C962.45 1425.03 961.954 1445.32 948.975 1454.51C941.599 1459.74 932.219 1459.63 923.448 1459.34C854.552 1457.08 785.655 1454.82 716.758 1452.56C708.867 1452.3 700.593 1451.93 693.793 1447.52C679.746 1438.4 678.151 1417.15 678.18 1399.22C678.215 1377.42 678.249 1355.62 678.284 1333.81C678.295 1326.73 678.397 1319.27 681.662 1313.16C688.072 1301.18 703.057 1299.8 715.7 1299.81C785.868 1299.86 856.036 1299.92 926.203 1299.97C932.62 1299.98 939.387 1300.08 944.913 1303.67C955.04 1310.24 956.861 1325.22 957.583 1338.13Z" fill="#e1d9cd" fill-rule="evenodd" opacity="1" stroke="none"/>
<path d="M1725.59 546.482C1714.76 557.193 1697.93 553.617 1683.87 549.394C1672.49 545.974 1659.34 540.73 1656.11 528.252C1654.78 523.133 1655.46 517.677 1656.15 512.408C1665.26 442.893 1674.36 373.377 1683.47 303.861C1685.24 290.339 1688.5 274.576 1699.91 269.161C1706.94 265.825 1715.02 267.623 1722.43 269.738C1747.91 277.012 1772.63 287.47 1795.97 300.847C1801.33 303.921 1806.9 307.448 1809.8 313.288C1814.4 322.587 1810.68 334.015 1806.91 343.761C1783.09 405.407 1759.27 467.052 1735.44 528.698C1732.95 535.141 1730.33 541.801 1725.59 546.482Z" fill="#e1d9cd" fill-rule="evenodd" opacity="1" stroke="none"/>
<path d="M1629.17 537.492C1625.75 541.872 1620.13 543.097 1614.96 544.059C1603.37 546.215 1591.4 548.361 1579.97 545.336C1568.55 542.31 1557.7 532.722 1556.26 519.897C1547.9 445.27 1539.53 370.644 1531.16 296.017C1529.86 284.387 1529.27 270.622 1537.45 263.113C1541.35 259.541 1546.51 258.208 1551.49 257.175C1581.16 251.018 1611.98 251.626 1641.43 258.949C1646.86 260.3 1652.53 262.059 1656.39 266.478C1662.7 273.718 1661.92 285.167 1660.73 295.108C1651.58 371.414 1642.42 447.719 1633.27 524.024C1632.7 528.789 1632.01 533.845 1629.17 537.492Z" fill="#e1d9cd" fill-rule="evenodd" opacity="1" stroke="none"/>
<path d="M1511.04 548.423C1492.76 554.873 1467.15 557.985 1459.62 538.568C1435.46 476.313 1411.31 414.058 1387.16 351.802C1381.9 338.256 1376.8 321.976 1384.06 309.602C1388.12 302.698 1395.18 298.779 1401.98 295.381C1422.93 284.916 1444.67 276.344 1466.89 269.779C1473.37 267.863 1480.25 266.119 1486.72 268.106C1501.31 272.588 1505.99 292.36 1508.18 308.84C1517.15 376.307 1526.11 443.774 1535.07 511.241C1535.94 517.793 1536.78 524.719 1534.49 530.842C1530.76 540.791 1520.36 545.136 1511.04 548.423Z" fill="#e1d9cd" fill-rule="evenodd" opacity="1" stroke="none"/>
<path d="M2044.61 1659.37C2044.97 1752.41 2045.32 1845.46 2045.68 1938.51C2045.77 1960.41 2045.4 1983.94 2033.81 2001.76C2016.19 2028.84 1981.11 2031.41 1950.82 2031.41C1710.23 2031.41 1469.64 2031.42 1229.06 2031.42C1210.41 2031.42 1190.57 2031.05 1174.95 2019.85C1148.13 2000.61 1145.33 1959.37 1145.34 1924.16C1145.35 1843.03 1145.36 1761.89 1145.37 1680.76C1145.38 1649.96 1148.06 1613.62 1171.98 1597.6C1184.77 1589.03 1200.61 1588.78 1215.59 1588.78C1465.82 1588.79 1716.06 1588.81 1966.3 1588.82C1992.89 1588.82 2024.47 1591.81 2037.75 1617.14C2044.32 1629.68 2044.55 1644.9 2044.61 1659.37M1958.76 1796.96C1951.1 1777.45 1927.48 1774.52 1908.16 1774.51C1701.64 1774.41 1495.13 1774.31 1288.61 1774.21C1264.88 1774.2 1234.12 1780.32 1230.33 1806.08C1228.01 1821.88 1238.81 1837.16 1252.03 1843.87C1265.24 1850.58 1280.33 1850.71 1294.89 1850.71C1494.03 1850.74 1693.18 1850.77 1892.33 1850.8C1908.77 1850.8 1925.98 1850.6 1940.46 1842.02C1954.93 1833.44 1965.28 1813.55 1958.76 1796.96M1958.02 1678.18C1950.26 1659.46 1927.5 1656.77 1908.79 1656.77C1700.87 1656.73 1492.95 1656.7 1285.04 1656.67C1263.71 1656.66 1236.77 1661.05 1231.03 1683.63C1226.96 1699.65 1237.46 1716.65 1251.01 1724.05C1264.57 1731.46 1280.32 1731.62 1295.46 1731.63C1494.45 1731.74 1693.44 1731.86 1892.42 1731.97C1908.79 1731.98 1925.94 1731.78 1940.3 1723.17C1954.67 1714.56 1964.8 1694.55 1958.02 1678.18M1230.3 1906.4C1223.25 1921.46 1232.4 1940.76 1245.84 1949.05C1259.28 1957.34 1275.46 1957.54 1290.87 1957.54C1494.67 1957.47 1698.47 1957.4 1902.27 1957.34C1916.38 1957.33 1931.08 1957.18 1943.69 1950.24C1956.31 1943.29 1966.03 1927.32 1962.05 1912.44C1956.55 1891.82 1931.93 1887.91 1912.38 1887.92C1699.64 1888 1486.91 1888.08 1274.17 1888.15C1257.67 1888.16 1237.84 1890.27 1230.3 1906.4Z" fill="#e1d9cd" fill-rule="evenodd" opacity="1" stroke="none"/>
<path d="M900.095 1276.65C840.42 1277.29 780.745 1277.94 721.071 1278.58C703.597 1073.26 753.767 861.785 860.227 692.007C966.686 522.229 1128.62 395.457 1309.37 340.383C1322.63 336.344 1337.79 332.957 1349.36 341.133C1357.53 346.904 1361.93 357.172 1365.93 366.903C1385.28 414.052 1404.63 461.201 1423.98 508.35C1430.78 524.934 1433.84 550.995 1417.77 555.338C1278.82 592.891 1152.45 684.391 1066.19 809.907C979.933 935.423 934.396 1094.07 939.498 1251.28C940.108 1270.04 917.172 1276.47 900.095 1276.65M1354.2 401.032C1350.64 392.25 1346.69 382.962 1339.29 377.83C1329.7 371.18 1317.29 373.42 1306.24 376.214C1139.71 418.334 991.988 535.429 893.285 688.79C794.582 842.151 743.658 1029.78 737.801 1217.54C737.478 1227.88 737.895 1239.76 745.188 1246.3C750.384 1250.96 757.603 1251.44 764.302 1251.72C789.824 1252.78 815.347 1253.83 840.869 1254.89C872.861 1256.22 916.367 1246.35 916.594 1211.15C917.596 1055.3 967.189 900.32 1055.16 778.109C1143.14 655.897 1268.94 567.225 1406.67 530.345C1389.18 487.241 1371.69 444.137 1354.2 401.032Z" fill="#f3af22" fill-rule="evenodd" opacity="1" stroke="none"/>
<path d="M1870.09 341.303C2052.68 382.592 2215.97 508.784 2322.89 676.655C2429.82 844.525 2481.6 1051.61 2479.74 1256.54C2479.59 1272.7 2459.92 1277.69 2445.22 1277.67C2396.78 1277.62 2348.34 1277.56 2299.9 1277.5C2279.9 1277.48 2252.95 1270.16 2253.58 1248.18C2258.01 1092.82 2213.04 936.27 2128.23 811.898C2043.42 687.526 1919.36 596.167 1782.47 557.285C1782.33 538.247 1807.97 536.352 1824.51 541.994C2085.61 631.056 2278.54 920.41 2277.22 1220.97C2277.12 1245.28 2306.78 1252.97 2328.89 1252.94C2361.67 1252.9 2394.46 1252.85 2427.24 1252.81C2433.36 1252.8 2440.09 1252.55 2444.64 1248.04C2449.55 1243.16 2450.18 1235.05 2450.38 1227.77C2455.6 1040.24 2403.63 851.336 2304.75 698.426C2205.87 545.516 2060.65 429.489 1897.83 373.305C1861.12 360.635 1830.15 406.189 1818.53 446.523C1806.91 486.857 1795.65 535.964 1759.11 549.25C1777.74 484.574 1801.65 421.734 1830.44 361.73C1834.16 353.985 1838.38 345.822 1845.52 341.936C1853 337.859 1861.91 339.452 1870.09 341.303Z" fill="#f3af22" fill-rule="evenodd" opacity="1" stroke="none"/>
<path d="M2163.17 1293.85C1974.2 1293.91 1785.23 1293.96 1596.26 1294.01C1551.81 1294.02 1507.37 1294.04 1462.93 1294.05C1318.55 1294.09 1174.17 1294.13 1029.79 1294.17C1023.19 1294.17 1016.08 1293.99 1010.8 1289.64C1003.46 1283.59 1002.52 1272.05 1002.44 1261.96C1000.64 1032.39 1118.12 806.188 1298.86 691.217C1479.6 576.245 1716.53 577.006 1896.65 693.137C2076.78 809.267 2193.06 1036.22 2190.03 1265.77C2189.93 1273.46 2189.43 1281.93 2184.56 1287.45C2179.27 1293.46 2170.78 1293.85 2163.17 1293.85M2165.45 1247.24C2161.96 1031.98 2049.4 822.728 1879.52 715.645C1709.63 608.563 1488.52 607.5 1317.78 712.945C1147.05 818.39 1032.84 1026.55 1027.63 1241.77C1027.26 1257.38 1032.29 1278.5 1046.47 1277.65C1413.73 1255.62 1782.08 1255.61 2149.34 1277.64C2161.37 1278.37 2165.67 1260.48 2165.45 1247.24Z" fill="#f3af22" fill-rule="evenodd" opacity="1" stroke="none"/>
<path d="M1031.72 1471.98C1034.76 1427.49 1018.73 1374.96 1047.09 1343.06C1064.83 1323.12 1092.9 1321.01 1118.27 1320.2C1437.67 1310.08 1757.33 1310.18 2076.73 1320.5C2102.06 1321.32 2130.46 1323.72 2147.11 1344.72C2161.14 1362.42 2162.35 1387.97 2162.86 1411.44C2163.47 1438.9 2164.07 1466.36 2164.67 1493.82C2164.99 1508.71 2165.04 1524.71 2157.39 1537.01C2145.48 1556.15 2120.9 1558.05 2099.81 1558.05C1764.32 1557.95 1428.84 1557.85 1093.35 1557.75C1071.93 1557.74 1046.87 1555.71 1035.06 1536.06C1024.1 1517.81 1030.23 1493.78 1031.72 1471.98M2141.64 1489.67C2140.66 1460.68 2139.68 1431.7 2138.7 1402.71C2138.12 1385.56 2136.5 1366.07 2124.12 1355.61C2115.37 1348.22 2103.55 1347.51 2092.53 1347.1C1762.59 1334.98 1432.28 1335.17 1102.35 1347.69C1087.12 1348.27 1069.78 1350.01 1060.57 1363.37C1053.99 1372.91 1053.55 1385.78 1053.38 1397.75C1052.91 1430.68 1052.44 1463.61 1051.97 1496.54C1051.84 1505.8 1051.98 1515.95 1057.43 1523.01C1064 1531.53 1075.54 1532.2 1085.7 1532.2C1425.24 1532.26 1764.79 1532.33 2104.34 1532.4C2115.02 1532.4 2126.95 1531.85 2134.4 1523.44C2141.96 1514.91 2142.04 1501.57 2141.64 1489.67Z" fill="#f3af22" fill-rule="evenodd" opacity="1" stroke="none"/>
<path d="M1133.62 1931.01C1135.02 1852 1136.42 1772.98 1137.82 1693.97C1138.53 1653.36 1143.86 1604.46 1177.28 1587.16C1190.52 1580.3 1205.69 1580.17 1220.32 1580.17C1466.37 1580.13 1712.43 1580.09 1958.48 1580.05C1989.17 1580.05 2024.93 1582.82 2042.25 1610.69C2052.5 1627.2 2053.28 1648.45 2053.7 1668.45C2055.57 1756.42 2057.44 1844.39 2059.31 1932.36C2059.79 1955.1 2060.03 1979.02 2050.23 1999.05C2029.8 2040.81 1978.22 2046.07 1935.1 2046.09C1709.86 2046.19 1484.62 2046.28 1259.38 2046.38C1216.04 2046.4 1164.32 2041.31 1143.36 1999.6C1133.06 1979.09 1133.21 1954.43 1133.62 1931.01M1157.26 1915.34C1156.6 1950.3 1159.59 1992.53 1187.73 2008.83C1199.18 2015.47 1212.62 2016.11 1225.55 2016.58C1471.4 2025.56 1717.54 2025.32 1963.37 2015.85C1982.7 2015.11 2003.9 2013.47 2017.83 1998.73C2033.35 1982.3 2034.22 1955.77 2034.06 1932.09C2033.51 1852.09 2032.97 1772.1 2032.42 1692.11C2032.23 1664.25 2030.05 1631.99 2009.32 1615.98C1995.95 1605.66 1978.46 1605.29 1962.14 1605.3C1715.25 1605.48 1468.37 1605.67 1221.49 1605.85C1209.13 1605.86 1196.09 1606.06 1185.43 1612.95C1164.99 1626.17 1162.18 1656.84 1161.68 1682.9C1160.21 1760.38 1158.74 1837.86 1157.26 1915.34Z" fill="#f3af22" fill-rule="evenodd" opacity="1" stroke="none"/>
<path d="M708.644 1500.13C718.786 1485.13 738.432 1483.87 755.434 1483.98C804.991 1484.32 854.547 1484.65 904.104 1484.98C914.583 1485.06 927.066 1486.36 932.108 1496.46C934.54 1501.34 934.546 1507.18 934.491 1512.74C932.967 1667.1 931.443 1821.45 929.918 1975.81C929.746 1993.3 928.456 2013.36 915.769 2023.9C907.672 2030.63 896.892 2031.61 886.755 2032.17C838.291 2034.87 789.658 2033.91 741.313 2029.29C733.029 2028.5 724.378 2027.47 717.446 2022.42C703.423 2012.21 701.963 1990.6 701.942 1972.1C701.783 1827.03 701.624 1681.96 701.465 1536.89C701.451 1524.12 701.719 1510.37 708.644 1500.13M762.838 1509.08C749.586 1509.12 733.786 1510.73 727.399 1523.5C724.382 1529.53 724.308 1536.75 724.309 1543.63C724.327 1684.79 724.344 1825.96 724.361 1967.12C724.362 1974.8 724.442 1982.84 727.76 1989.6C734.554 2003.44 751.299 2006.06 765.589 2006.83C800.345 2008.7 835.158 2009.32 869.952 2008.68C880.396 2008.48 891.881 2007.72 899.437 1999.8C907.714 1991.11 908.304 1977.05 908.343 1964.47C908.795 1819.97 909.247 1675.46 909.699 1530.96C909.752 1513.99 889.026 1508.65 873.585 1508.7C836.669 1508.83 799.753 1508.95 762.838 1509.08Z" fill="#f3af22" fill-rule="evenodd" opacity="1" stroke="none"/>
<path d="M2452.92 2030.29C2406.59 2033.05 2360.17 2034.16 2313.77 2033.62C2301.74 2033.47 2288.86 2032.92 2279.14 2025.13C2264.3 2013.23 2262.79 1989.95 2262.64 1969.75C2261.53 1818.7 2260.42 1667.66 2259.31 1516.61C2259.27 1510.16 2259.29 1503.37 2262.14 1497.72C2268.03 1486.05 2282.49 1484.62 2294.62 1484.6C2343.83 1484.54 2393.03 1484.49 2442.23 1484.43C2455.87 1484.41 2470.9 1484.95 2480.97 1495.06C2492.36 1506.5 2493.07 1525.61 2492.97 1542.57C2492.07 1687.73 2491.17 1832.9 2490.27 1978.06C2490.16 1995.33 2488.6 2015.62 2475.26 2024.72C2468.7 2029.2 2460.63 2029.83 2452.92 2030.29M2322.97 2008.36C2362.57 2009.85 2402.25 2008.91 2441.76 2005.54C2448.12 2005 2454.89 2004.23 2459.91 1999.89C2467.74 1993.12 2468.42 1980.57 2468.42 1969.62C2468.48 1826.58 2468.54 1683.54 2468.61 1540.51C2468.61 1533.21 2468.47 1525.39 2464.68 1519.41C2458.67 1509.93 2446.45 1509.03 2435.95 1509.06C2392.83 1509.16 2349.72 1509.26 2306.61 1509.37C2301.52 1509.38 2296.1 1509.5 2291.88 1512.62C2284.92 1517.79 2284.2 1528.55 2284.18 1537.79C2283.95 1679.6 2284.08 1821.42 2284.58 1963.23C2284.62 1975.9 2285.2 1990.04 2293.46 1998.89C2300.98 2006.94 2312.48 2007.96 2322.97 2008.36Z" fill="#f3af22" fill-rule="evenodd" opacity="1" stroke="none"/>
<path d="M2221.13 1423.12C2221.17 1397.93 2221.21 1372.73 2221.26 1347.54C2221.28 1333.76 2221.78 1318.58 2230.26 1308.44C2239.76 1297.09 2255.54 1296.34 2269.56 1296.39C2340 1296.62 2410.43 1296.85 2480.87 1297.08C2489.53 1297.11 2498.65 1297.26 2506.16 1302.01C2520.55 1311.11 2523.07 1332.38 2523.97 1350.61C2524.64 1364.11 2525.31 1377.6 2525.98 1391.1C2527.27 1417.07 2525.51 1449.09 2504.23 1460.43C2496.05 1464.8 2486.6 1464.89 2477.51 1464.89C2403.27 1464.93 2329.03 1464.97 2254.79 1465.01C2246.87 1465.01 2238.36 1464.82 2231.91 1459.75C2222.02 1451.98 2221.1 1436.49 2221.13 1423.12M2503.23 1366.19C2501.17 1349.98 2497.44 1331.17 2483.93 1324.31C2478.06 1321.33 2471.36 1321.29 2464.89 1321.3C2401.34 1321.41 2337.78 1321.52 2274.23 1321.63C2266.13 1321.64 2257.1 1322.07 2251.47 1328.46C2246.96 1333.57 2245.9 1341.15 2245.22 1348.22C2243.23 1369.16 2242.75 1390.28 2243.79 1411.3C2244.28 1421.16 2245.98 1432.59 2253.84 1437.37C2257.89 1439.85 2262.75 1439.93 2267.39 1439.95C2332.34 1440.24 2397.29 1440.54 2462.24 1440.83C2469.31 1440.86 2476.58 1440.85 2483.15 1437.98C2506.08 1427.98 2506.64 1393.05 2503.23 1366.19Z" fill="#f3af22" fill-rule="evenodd" opacity="1" stroke="none"/>
<path d="M971.323 1348.1C971.588 1373.02 971.854 1397.94 972.12 1422.87C972.273 1437.24 971.025 1454.44 959.604 1461.45C954.2 1464.77 947.704 1464.86 941.516 1464.86C869.424 1464.94 797.332 1465.01 725.24 1465.08C709.343 1465.1 691.751 1464.41 680.223 1452.38C667.351 1438.94 667.122 1416.86 667.793 1397.36C668.436 1378.68 669.078 1360 669.721 1341.31C670.045 1331.89 670.499 1321.98 675.041 1313.98C683.887 1298.4 703.557 1296.7 720.266 1296.7C790.384 1296.72 860.503 1296.74 930.621 1296.76C939.637 1296.77 949.226 1296.95 956.78 1302.36C969.633 1311.56 971.143 1331.24 971.323 1348.1M949.362 1412.85C949.361 1393.89 949.36 1374.94 949.358 1355.98C949.358 1348.55 949.248 1340.67 945.676 1334.36C939.183 1322.89 924.724 1321.6 912.434 1321.57C852.959 1321.4 793.484 1321.24 734.008 1321.07C724.014 1321.05 713.318 1321.25 705.099 1327.5C693.657 1336.2 691.02 1353.25 689.359 1368.43C686.494 1394.63 687.505 1428.48 709.856 1438.08C716.237 1440.82 723.277 1440.83 730.127 1440.8C795.331 1440.52 860.535 1440.24 925.739 1439.96C932.035 1439.93 938.954 1439.66 943.627 1435.02C948.979 1429.71 949.363 1420.77 949.362 1412.85Z" fill="#f3af22" fill-rule="evenodd" opacity="1" stroke="none"/>
<path d="M1635.58 249.548C1645.48 249.686 1656.73 250.516 1662.94 258.986C1668.69 266.826 1667.75 278.073 1666.5 288.049C1656.87 365.511 1647.23 442.974 1637.59 520.436C1635.42 537.901 1623 553.286 1607.48 557.729C1591.97 562.171 1574.3 555.401 1564.65 541.319C1556.28 529.102 1554.17 513.204 1552.32 498.046C1543.32 424.375 1534.32 350.705 1525.32 277.034C1524.06 266.668 1531.29 256.871 1539.99 252.639C1548.69 248.408 1558.55 248.468 1568.06 248.601C1590.57 248.917 1613.07 249.232 1635.58 249.548M1626.42 278.824C1606.99 278.767 1587.56 278.711 1568.14 278.655C1562.52 278.638 1555.96 279.143 1552.83 284.27C1550.52 288.06 1550.99 293.049 1551.55 297.572C1559.66 363.063 1567.77 428.554 1575.87 494.044C1577.94 510.775 1586.59 532.795 1601.45 528.557C1611.84 525.597 1615.16 511.488 1616.63 499.805C1624.97 433.386 1633.32 366.967 1641.66 300.547C1642.48 293.992 1642.91 286.203 1638.3 281.94C1635.12 278.992 1630.58 278.836 1626.42 278.824Z" fill="#f3af22" fill-rule="evenodd" opacity="1" stroke="none"/>
<path d="M1725.36 266.736C1755.33 274.295 1784.34 286.423 1811.32 302.663C1816.77 305.947 1822.7 310.247 1823.72 316.993C1824.39 321.466 1822.68 325.911 1821.01 330.055C1792.01 401.833 1763.01 473.612 1734.02 545.39C1725.93 565.404 1699.57 562.398 1680.51 556.052C1672.09 553.25 1662.92 549.833 1658.37 541.555C1654.18 533.926 1655.11 524.3 1656.18 515.464C1664.84 443.974 1673.5 372.484 1682.16 300.994C1683.58 289.245 1685.7 276.162 1694.43 269.215C1703.08 262.338 1714.95 264.112 1725.36 266.736M1768.18 310.538C1756.95 306.431 1745.72 302.323 1734.5 298.216C1723.54 294.209 1706.87 293.76 1705.31 306.333C1697.79 366.972 1690.27 427.611 1682.75 488.251C1681.56 497.801 1680.41 507.759 1683.22 516.888C1686.04 526.016 1694.11 533.961 1702.79 532.595C1712.23 531.109 1717.62 520.272 1721.54 510.715C1744.81 453.946 1768.07 397.176 1791.34 340.406C1796.89 326.867 1780.99 315.227 1768.18 310.538Z" fill="#f3af22" fill-rule="evenodd" opacity="1" stroke="none"/>
<path d="M1163.63 1100.9C1180.22 1006.95 1232.55 922.692 1301.88 864.821C1371.21 806.951 1456.58 774.545 1543.16 764.659C1646.98 752.805 1754.98 773.337 1845.05 831.329C1935.11 889.321 2005.71 986.113 2029.49 1097.85C2034.29 1120.39 2030.06 1153.5 2009.01 1153.51C1738.74 1153.56 1468.47 1153.61 1198.2 1153.66C1189.44 1153.66 1180.04 1153.46 1172.86 1147.92C1160.2 1138.17 1160.69 1117.59 1163.63 1100.9M1206.9 1128.11C1477.41 1127.37 1747.93 1126.63 2018.44 1125.88C1964.69 940.307 1801.27 799.65 1624.5 786.825C1447.74 774 1268.92 889.824 1193.45 1066.02C1183.55 1089.14 1183.65 1128.18 1206.9 1128.11Z" fill="#f3af22" fill-rule="evenodd" opacity="1" stroke="none"/>
<path d="M1505.64 557.981C1493.89 560.901 1480.82 563.584 1470.41 556.924C1461.64 551.316 1457.03 540.454 1452.93 530.251C1427.21 466.14 1401.48 402.029 1375.75 337.918C1373.06 331.207 1370.32 323.683 1372.51 316.754C1374.3 311.103 1378.97 307.242 1383.51 303.943C1412.54 282.833 1446.62 270.193 1481.36 267.653C1487.65 267.193 1494.37 267.173 1499.72 270.833C1507.93 276.444 1509.97 288.357 1511.23 298.888C1519.93 371.224 1528.63 443.559 1537.33 515.894C1538.19 523.066 1539.02 530.604 1536.61 537.335C1531.99 550.217 1517.92 554.928 1505.64 557.981M1461.02 296.73C1450.93 300.146 1440.85 303.562 1430.76 306.979C1420.4 310.49 1408.78 315.222 1404.73 326.281C1401.07 336.259 1405.1 347.443 1409.08 357.267C1428.78 405.839 1448.47 454.412 1468.17 502.984C1471.85 512.061 1475.78 521.509 1482.89 527.654C1489.99 533.8 1501.28 535.33 1507.66 528.284C1513.67 521.643 1512.97 510.894 1511.85 501.607C1504.55 440.72 1497.24 379.833 1489.93 318.946C1488.87 310.068 1486.95 299.816 1479.68 295.797C1473.96 292.644 1467.12 294.661 1461.02 296.73Z" fill="#f3af22" fill-rule="evenodd" opacity="1" stroke="none"/>
<path d="M1962.06 1817.05C1960.99 1843.02 1929.59 1850.57 1905.95 1850.57C1698.58 1850.49 1491.22 1850.42 1283.86 1850.35C1266.15 1850.34 1245.2 1848.42 1236.15 1831.68C1226.95 1814.64 1237.04 1791.38 1252.62 1781.42C1268.2 1771.45 1287.19 1771.18 1305.21 1771.17C1497.84 1771.13 1690.47 1771.08 1883.1 1771.03C1908.9 1771.02 1938.36 1772.83 1954.59 1794.88C1959.21 1801.14 1962.39 1809 1962.06 1817.05M1292.7 1795.99C1276.49 1795.99 1253.6 1805.69 1259.45 1822.32C1485.76 1827.72 1712.18 1827.64 1938.49 1822.07C1938.35 1802.12 1914.07 1795.92 1895.92 1795.92C1694.85 1795.95 1493.78 1795.97 1292.7 1795.99Z" fill="#f3af22" fill-rule="evenodd" opacity="1" stroke="none"/>
<path d="M1961.7 1933.56C1955.97 1955.05 1930.79 1960.03 1910.44 1960.98C1698.89 1970.9 1486.94 1970.51 1275.42 1959.82C1260.45 1959.07 1243.22 1956.92 1234.93 1943.2C1225.36 1927.37 1234.52 1904.53 1249.36 1894.77C1264.2 1885.01 1282.46 1884.74 1299.75 1884.75C1498.85 1884.84 1697.96 1884.93 1897.07 1885.03C1912.32 1885.03 1928.21 1885.2 1941.85 1892.71C1955.49 1900.22 1965.99 1917.47 1961.7 1933.56M1894.21 1909.44C1688.35 1909.54 1482.48 1909.64 1276.61 1909.74C1266.33 1909.75 1259.49 1921.05 1254.61 1931C1484.07 1946.45 1714.39 1946.41 1943.85 1930.89C1935.93 1912.09 1913.05 1909.43 1894.21 1909.44Z" fill="#f3af22" fill-rule="evenodd" opacity="1" stroke="none"/>
<path d="M1244.36 1719.09C1227.53 1700.28 1238.6 1665.74 1259.37 1652.52C1280.14 1639.3 1305.75 1641.01 1329.69 1642.87C1506.79 1656.6 1684.77 1656.64 1861.87 1642.98C1887.08 1641.04 1914.31 1639.34 1935.62 1654.28C1956.92 1669.23 1965.37 1708.07 1944.8 1724.21C1935.57 1731.45 1923.5 1732.14 1912.17 1732.54C1703.62 1739.97 1494.85 1739.99 1286.3 1732.62C1271.35 1732.09 1254.85 1730.8 1244.36 1719.09M1262.19 1701.29C1265.47 1704.89 1270.58 1705.31 1275.21 1705.5C1489.63 1714.53 1704.37 1714.55 1918.79 1705.55C1922.62 1705.39 1926.72 1705.12 1929.77 1702.56C1935.93 1697.37 1933.55 1685.68 1927.24 1680.71C1920.93 1675.74 1912.6 1675.56 1904.84 1675.56C1698.98 1675.69 1493.12 1675.82 1287.26 1675.95C1279.94 1675.95 1272.12 1676.11 1266.03 1680.59C1259.94 1685.07 1257.01 1695.59 1262.19 1701.29Z" fill="#f3af22" fill-rule="evenodd" opacity="1" stroke="none"/>
<path d="M1775.7 529.988C1774.16 535.298 1777.41 541.576 1780.27 545.71C1781.28 547.178 1786.59 549.175 1786.82 550.635C1787.23 553.215 1793.96 553.541 1797.78 554.774C1800.03 555.501 1805.16 559.552 1807.53 559.128C1811.9 558.35 1817.28 556.173 1821.95 556.558C1824.79 556.792 1828.21 560.142 1830.97 558.867C1832.95 557.953 1832.04 556.17 1833.23 554.983C1834.01 554.208 1836.63 554.812 1837.71 554.621" fill="#f3af22" fill-rule="evenodd" opacity="1" stroke="none"/>
<path d="M1805.72 552.923C1796.2 545.771 1788.71 542.8 1777.85 538.308C1774.14 536.774 1767.31 536.162 1764.57 540.24C1763.2 542.276 1764.8 544.072 1763.84 546.026C1763.24 547.254 1761.92 547.437 1761.45 549.065" fill="#f3af22" fill-rule="evenodd" opacity="1" stroke="none"/>
<path d="M1760.84 547.867C1761.48 551.851 1773.46 553.281 1776.68 554.183C1782.68 555.866 1788.44 557.685 1794.38 559.296C1797.67 560.187 1801.31 559.414 1804.4 560.122C1805.38 560.346 1809.04 562.699 1810.01 561.733C1812.3 559.457 1816.09 554.509 1817 551.348" fill="#f3af22" fill-rule="evenodd" opacity="1" stroke="none"/>
<path d="M1761.45 549.065C1759.06 550.905 1780.98 557.981 1782.29 558.404C1791.54 561.39 1800.47 562.884 1809.75 565.261C1811.27 565.65 1817.35 569.145 1818.77 567.57C1820.95 565.149 1824.21 561.894 1825.16 558.597" fill="#f3af22" fill-rule="evenodd" opacity="1" stroke="none"/>
<path d="M1786.76 516.703C1783.04 517.365 1783.87 526.101 1784.98 528.769C1789.15 538.848 1792.79 549.166 1801.65 555.824C1810.33 562.345 1820.51 564.306 1831.38 564.016C1835.26 563.913 1838.84 563.557 1842.73 562.864C1843.4 562.745 1844.73 562.507 1844.73 562.507C1844.73 562.507 1843.93 562.65 1843.53 562.721C1841.3 563.119 1839.26 563.256 1836.99 563.017C1831.69 562.46 1826.23 561.641 1820.96 560.652C1807.27 558.081 1795.13 548.999 1783.4 542.106C1779.52 539.828 1775.81 538.935 1773.24 535.214" fill="#f3af22" fill-rule="evenodd" opacity="1" stroke="none"/>
<path d="M1794.61 501.378C1793.96 503.633 1791.74 505.094 1791.08 507.664C1788.11 519.204 1789.53 531.327 1796.08 541.586C1799.04 546.216 1803.52 549.784 1807.79 552.99C1807.91 553.08 1814.26 556.987 1814.21 557.068C1813.2 558.571 1806.01 557.842 1804.46 557.935C1797.54 558.348 1781.58 558.067 1775.61 555.243C1773.17 554.086 1767.84 548.613 1768.72 545.593" fill="#f3af22" fill-rule="evenodd" opacity="1" stroke="none"/>
</g>
</g>
</svg>
